<svg width="128" height="128" viewBox="0 0 128 128" fill="none" xmlns="http://www.w3.org/2000/svg">
<g clip-path="url(#clip0_19_15)">
<rect x="4" y="4" width="120" height="120" rx="60" fill="#DC8ADD"/>
<rect x="4" y="4" width="120" height="120" rx="60" fill="url(#paint0_linear_19_15)" fill-opacity="0.2"/>
<g opacity="0.8" filter="url(#filter0_f_19_15)">
<ellipse cx="102.5" cy="95" rx="41.5" ry="29" fill="#613583"/>
</g>
<g clip-path="url(#clip1_19_15)">
<rect x="4" y="6" width="120" height="116" rx="58" fill="#C061CB"/>
<g opacity="0.9" filter="url(#filter1_f_19_15)">
<ellipse cx="16.5" cy="39" rx="41.5" ry="29" fill="#813D9C"/>
</g>
<g filter="url(#filter2_f_19_15)">
<ellipse cx="102.5" cy="97" rx="41.5" ry="29" fill="#613583"/>
</g>
<g clip-path="url(#clip2_19_15)">
<rect x="34.3124" y="53.738" width="20.5238" height="20.5238" rx="10.2619" stroke="white" stroke-width="5.625"/>
<rect x="68.1639" y="36.8125" width="20.5238" height="20.5238" rx="10.2619" stroke="white" stroke-width="5.625"/>
<rect x="68.1639" y="70.6638" width="20.5238" height="20.5238" rx="10.2619" stroke="white" stroke-width="5.625"/>
</g>
</g>
</g>
<defs>
<filter id="filter0_f_19_15" x="17" y="22" width="171" height="146" filterUnits="userSpaceOnUse" color-interpolation-filters="sRGB">
<feFlood flood-opacity="0" result="BackgroundImageFix"/>
<feBlend mode="normal" in="SourceGraphic" in2="BackgroundImageFix" result="shape"/>
<feGaussianBlur stdDeviation="22" result="effect1_foregroundBlur_19_15"/>
</filter>
<filter id="filter1_f_19_15" x="-69" y="-34" width="171" height="146" filterUnits="userSpaceOnUse" color-interpolation-filters="sRGB">
<feFlood flood-opacity="0" result="BackgroundImageFix"/>
<feBlend mode="normal" in="SourceGraphic" in2="BackgroundImageFix" result="shape"/>
<feGaussianBlur stdDeviation="22" result="effect1_foregroundBlur_19_15"/>
</filter>
<filter id="filter2_f_19_15" x="17" y="24" width="171" height="146" filterUnits="userSpaceOnUse" color-interpolation-filters="sRGB">
<feFlood flood-opacity="0" result="BackgroundImageFix"/>
<feBlend mode="normal" in="SourceGraphic" in2="BackgroundImageFix" result="shape"/>
<feGaussianBlur stdDeviation="22" result="effect1_foregroundBlur_19_15"/>
</filter>
<linearGradient id="paint0_linear_19_15" x1="124" y1="64" x2="4" y2="64" gradientUnits="userSpaceOnUse">
<stop offset="0.05" stop-color="white"/>
<stop offset="0.1" stop-color="white" stop-opacity="0"/>
<stop offset="0.9" stop-color="white" stop-opacity="0"/>
<stop offset="0.95" stop-color="white"/>
</linearGradient>
<clipPath id="clip0_19_15">
<rect x="4" y="4" width="120" height="120" rx="60" fill="white"/>
</clipPath>
<clipPath id="clip1_19_15">
<rect x="4" y="6" width="120" height="116" rx="58" fill="white"/>
</clipPath>
<clipPath id="clip2_19_15">
<rect width="60" height="60" fill="white" transform="translate(31.5 34)"/>
</clipPath>
</defs>
</svg>
