<svg width="16" height="16" viewBox="0 0 16 16" fill="none" xmlns="http://www.w3.org/2000/svg">
<g clip-path="url(#clip0_296_608)">
<path fill-rule="evenodd" clip-rule="evenodd" d="M8 0C9.85325 1.07309e-08 11.5623 0.250275 12.834 0.675781C13.4658 0.887213 14.0313 1.1558 14.4541 1.49023C14.8688 1.81829 15.2499 2.29754 15.25 2.9248V13.0752C15.2498 13.7004 14.8732 14.1802 14.459 14.5098C14.0375 14.845 13.4736 15.1138 12.8428 15.3252C11.5731 15.7507 9.86337 16 8 16C6.13663 16 4.42694 15.7507 3.15723 15.3252C2.52643 15.1138 1.96249 14.845 1.54102 14.5098C1.12679 14.1802 0.750157 13.7004 0.75 13.0752V2.9248C0.750079 2.29754 1.13122 1.81829 1.5459 1.49023C1.96873 1.1558 2.53415 0.887213 3.16602 0.675781C4.43774 0.250275 6.14675 0 8 0ZM13.75 9.87695C13.4718 10.0168 13.1664 10.1415 12.8428 10.25C11.5731 10.6755 9.86337 10.9248 8 10.9248C6.13663 10.9248 4.42694 10.6755 3.15723 10.25C2.8336 10.1415 2.52818 10.0168 2.25 9.87695V13.0752L2.25195 13.0811C2.2539 13.0875 2.25898 13.1028 2.27246 13.125C2.30105 13.172 2.36095 13.2445 2.47461 13.335C2.70751 13.5202 3.09144 13.7205 3.63379 13.9023C4.7113 14.2634 6.25226 14.5 8 14.5C9.74774 14.5 11.2887 14.2634 12.3662 13.9023C12.9086 13.7205 13.2925 13.5202 13.5254 13.335C13.639 13.2445 13.6989 13.172 13.7275 13.125C13.741 13.1028 13.7461 13.0875 13.748 13.0811L13.75 13.0752V9.87695ZM13.75 4.79785C13.4693 4.93895 13.1608 5.06447 12.834 5.17383C11.5622 5.59936 9.85331 5.84961 8 5.84961C6.14669 5.84961 4.43775 5.59936 3.16602 5.17383C2.8392 5.06447 2.53068 4.93895 2.25 4.79785V8.00098C2.25 8.00098 2.25105 8.00385 2.25195 8.00684C2.25399 8.01348 2.25913 8.02785 2.27246 8.0498C2.30102 8.09682 2.36045 8.16993 2.47461 8.26074C2.70755 8.44603 3.0913 8.6463 3.63379 8.82812C4.7113 9.18923 6.25226 9.4248 8 9.4248C9.74774 9.4248 11.2887 9.18923 12.3662 8.82812C12.9087 8.6463 13.2925 8.44603 13.5254 8.26074C13.6396 8.16993 13.699 8.09682 13.7275 8.0498C13.7409 8.02785 13.746 8.01348 13.748 8.00684C13.7489 8.00385 13.75 8.00098 13.75 8.00098V4.79785ZM8 1.5C6.26349 1.5 4.7224 1.73698 3.6416 2.09863C3.09752 2.28072 2.71151 2.48114 2.47656 2.66699C2.23345 2.85933 2.25 2.95155 2.25 2.9248C2.24992 2.89871 2.23404 2.99173 2.47656 3.18359C2.71156 3.3694 3.09765 3.56993 3.6416 3.75195C4.7224 4.1136 6.26349 4.34961 8 4.34961C9.73651 4.34961 11.2776 4.1136 12.3584 3.75195C12.9024 3.56993 13.2884 3.3694 13.5234 3.18359C13.766 2.99173 13.7501 2.89871 13.75 2.9248C13.75 2.95155 13.7666 2.85933 13.5234 2.66699C13.2885 2.48114 12.9025 2.28072 12.3584 2.09863C11.2776 1.73698 9.73651 1.5 8 1.5Z" fill="white"/>
</g>
<defs>
<clipPath id="clip0_296_608">
<rect width="16" height="16" fill="white"/>
</clipPath>
</defs>
</svg>
