<svg width="128" height="128" viewBox="0 0 128 128" fill="none" xmlns="http://www.w3.org/2000/svg">
<path d="M112 20H104C101.791 20 100 21.7909 100 24V32.5C100 34.7091 101.791 36.5 104 36.5H108.843C109.904 36.5 110.921 36.0786 111.672 35.3284L114.828 32.1716C115.579 31.4214 116 30.404 116 29.3431V24C116 21.7909 114.209 20 112 20Z" fill="#DEDDDA"/>
<path d="M112 20H104C101.791 20 100 21.7909 100 24V32.5C100 34.7091 101.791 36.5 104 36.5H108.843C109.904 36.5 110.921 36.0786 111.672 35.3284L114.828 32.1716C115.579 31.4214 116 30.404 116 29.3431V24C116 21.7909 114.209 20 112 20Z" fill="url(#paint0_linear_8_323)" fill-opacity="0.2"/>
<path d="M112 12H104C101.791 12 100 13.7909 100 16V24.5C100 26.7091 101.791 28.5 104 28.5H108.843C109.904 28.5 110.921 28.0786 111.672 27.3284L114.828 24.1716C115.579 23.4214 116 22.404 116 21.3431V16C116 13.7909 114.209 12 112 12Z" fill="#C0BFBC"/>
<rect x="12" y="12" width="99" height="104" rx="10" fill="#DEDDDA"/>
<rect x="12" y="12" width="99" height="104" rx="10" fill="url(#paint1_linear_8_323)" fill-opacity="0.2"/>
<rect x="12" y="12" width="99" height="100" rx="10" fill="#C0BFBC"/>
<g clip-path="url(#clip0_8_323)">
<path d="M27.4142 101.414L22.5858 96.5858C22.2107 96.2107 22 95.702 22 95.1716V24C22 22.8954 22.8954 22 24 22H99C100.105 22 101 22.8954 101 24V100C101 101.105 100.105 102 99 102H28.8284C28.298 102 27.7893 101.789 27.4142 101.414Z" fill="white"/>
<rect x="84" y="96" width="15" height="3" fill="black"/>
<rect x="45" y="96" width="15" height="3" fill="black"/>
<rect x="32" y="96" width="10" height="3" fill="black"/>
<rect x="62" y="96" width="20" height="3" fill="black"/>
<rect width="84" height="57" transform="translate(22 36)" fill="#26A269"/>
</g>
<defs>
<linearGradient id="paint0_linear_8_323" x1="116" y1="28.25" x2="100" y2="28.25" gradientUnits="userSpaceOnUse">
<stop offset="0.05" stop-color="white"/>
<stop offset="0.1" stop-color="white" stop-opacity="0"/>
<stop offset="0.9" stop-color="white" stop-opacity="0"/>
<stop offset="0.95" stop-color="white"/>
</linearGradient>
<linearGradient id="paint1_linear_8_323" x1="111" y1="64" x2="12" y2="64" gradientUnits="userSpaceOnUse">
<stop offset="0.05" stop-color="white"/>
<stop offset="0.1" stop-color="white" stop-opacity="0"/>
<stop offset="0.9" stop-color="white" stop-opacity="0"/>
<stop offset="0.95" stop-color="white"/>
</linearGradient>
<clipPath id="clip0_8_323">
<rect width="79" height="80" fill="white" transform="translate(22 22)"/>
</clipPath>
</defs>
</svg>
