<svg width="128" height="128" viewBox="0 0 128 128" fill="none" xmlns="http://www.w3.org/2000/svg">
<mask id="mask0_11_93" style="mask-type:alpha" maskUnits="userSpaceOnUse" x="4" y="4" width="121" height="121">
<path d="M64.0898 4C79.5855 4 93.7106 9.8663 104.367 19.498C116.533 30.2957 124.18 45.9235 124.18 63.3086C124.18 63.4376 124.178 63.5665 124.177 63.6953C124.178 63.8267 124.18 63.9582 124.18 64.0898C124.18 97.2773 97.2773 124.18 64.0898 124.184C30.9023 124.184 4 97.2773 4 64.0898C3.99609 30.9023 30.9023 4 64.0898 4Z" fill="black"/>
</mask>
<g mask="url(#mask0_11_93)">
<path d="M64.0898 4C30.9023 4 3.99609 30.9023 4 64.0898C4 97.2773 30.9023 124.184 64.0898 124.184C97.2773 124.18 124.18 97.2773 124.18 64.0898C124.18 30.9062 97.2773 4 64.0898 4ZM64.0898 54.0625C70.8008 54.0625 76.2422 59.5039 76.2422 66.2148C76.2422 72.9297 70.8008 78.3672 64.0898 78.3711C57.3789 78.3711 51.9375 72.9297 51.9336 66.2148C51.9336 59.5039 57.375 54.0625 64.0898 54.0625Z" fill="url(#paint0_linear_11_93)"/>
<mask id="mask1_11_93" style="mask-type:luminance" maskUnits="userSpaceOnUse" x="8" y="7" width="113" height="115">
<path d="M8.17969 7.30859H120.18V121.309H8.17969V7.30859Z" fill="white"/>
</mask>
<g mask="url(#mask1_11_93)">
<mask id="mask2_11_93" style="mask-type:luminance" maskUnits="userSpaceOnUse" x="4" y="4" width="121" height="119">
<path d="M64.1797 4.30859C31.043 4.30859 4.17969 30.7227 4.17969 63.3086C4.17969 95.8945 31.043 122.309 64.1797 122.309C97.3164 122.309 124.18 95.8945 124.18 63.3086C124.18 30.7227 97.3164 4.30859 64.1797 4.30859ZM64.1797 51.5078C70.8047 51.5078 76.1797 56.793 76.1797 63.3086C76.1797 69.8242 70.8047 75.1094 64.1797 75.1094C57.5508 75.1094 52.1797 69.8242 52.1797 63.3086C52.1797 56.793 57.5508 51.5078 64.1797 51.5078Z" fill="white"/>
</mask>
<g mask="url(#mask2_11_93)">
<path d="M64.1797 8.24219C95.1055 8.24219 120.18 32.8984 120.18 63.3086V65.2773C120.18 95.6875 95.1055 120.344 64.1797 120.344C33.25 120.344 8.17969 95.6875 8.17969 65.2773V63.3086C8.17969 32.8984 33.25 8.24219 64.1797 8.24219Z" fill="#D5D3CF"/>
</g>
</g>
<mask id="mask3_11_93" style="mask-type:luminance" maskUnits="userSpaceOnUse" x="4" y="4" width="121" height="119">
<path d="M4.17969 4.30859H124.18V122.309H4.17969V4.30859Z" fill="white"/>
</mask>
<g mask="url(#mask3_11_93)">
<mask id="mask4_11_93" style="mask-type:luminance" maskUnits="userSpaceOnUse" x="4" y="4" width="121" height="119">
<path d="M64.1797 4.30859C31.043 4.30859 4.17969 30.7227 4.17969 63.3086C4.17969 95.8945 31.043 122.309 64.1797 122.309C97.3164 122.309 124.18 95.8945 124.18 63.3086C124.18 30.7227 97.3164 4.30859 64.1797 4.30859ZM64.1797 51.5078C70.8047 51.5078 76.1797 56.793 76.1797 63.3086C76.1797 69.8242 70.8047 75.1094 64.1797 75.1094C57.5508 75.1094 52.1797 69.8242 52.1797 63.3086C52.1797 56.793 57.5508 51.5078 64.1797 51.5078Z" fill="white"/>
</mask>
<g mask="url(#mask4_11_93)">
<path d="M64.1797 4.30859C31.043 4.30859 4.17969 30.7227 4.17969 63.3086C4.17969 95.8945 31.043 122.309 64.1797 122.309C97.3164 122.309 124.18 95.8945 124.18 63.3086C124.18 30.7227 97.3164 4.30859 64.1797 4.30859ZM64.1797 52.3398C70.3398 52.3398 75.3359 57.25 75.3359 63.3086C75.3359 69.3672 70.3398 74.2773 64.1797 74.2773C58.0195 74.2773 53.0234 69.3672 53.0234 63.3086C53.0234 57.25 58.0195 52.3398 64.1797 52.3398Z" fill="#F6F5F4"/>
<path d="M85.5313 63.3085C85.5313 74.5937 75.9727 83.7382 64.1797 83.7382C52.3867 83.7382 42.8281 74.5937 42.8281 63.3085C42.8281 52.0234 52.3867 42.8788 64.1797 42.8788C75.9727 42.8788 85.5313 52.0234 85.5313 63.3085Z" stroke="black" stroke-opacity="0.129412" stroke-width="9.21488"/>
</g>
</g>
<mask id="mask5_11_93" style="mask-type:luminance" maskUnits="userSpaceOnUse" x="64" y="36" width="61" height="51">
<path d="M64.1797 36.3086H124.18V86.3086H64.1797V36.3086Z" fill="white"/>
</mask>
<g mask="url(#mask5_11_93)">
<mask id="mask6_11_93" style="mask-type:luminance" maskUnits="userSpaceOnUse" x="4" y="4" width="121" height="119">
<path d="M64.1797 4.30859C31.043 4.30859 4.17969 30.7227 4.17969 63.3086C4.17969 95.8945 31.043 122.309 64.1797 122.309C97.3164 122.309 124.18 95.8945 124.18 63.3086C124.18 30.7227 97.3164 4.30859 64.1797 4.30859ZM64.1797 51.5078C70.8047 51.5078 76.1797 56.793 76.1797 63.3086C76.1797 69.8242 70.8047 75.1094 64.1797 75.1094C57.5508 75.1094 52.1797 69.8242 52.1797 63.3086C52.1797 56.793 57.5508 51.5078 64.1797 51.5078Z" fill="white"/>
</mask>
<g mask="url(#mask6_11_93)">
<path d="M128.18 37.0508L64.1797 63.3086L137.844 86.0703" fill="black" fill-opacity="0.05098"/>
</g>
</g>
<mask id="mask7_11_93" style="mask-type:luminance" maskUnits="userSpaceOnUse" x="4" y="59" width="62" height="47">
<path d="M4.17969 59.3086H65.1797V105.309H4.17969V59.3086Z" fill="white"/>
</mask>
<g mask="url(#mask7_11_93)">
<mask id="mask8_11_93" style="mask-type:luminance" maskUnits="userSpaceOnUse" x="4" y="4" width="121" height="119">
<path d="M64.1797 4.30859C31.043 4.30859 4.17969 30.7227 4.17969 63.3086C4.17969 95.8945 31.043 122.309 64.1797 122.309C97.3164 122.309 124.18 95.8945 124.18 63.3086C124.18 30.7227 97.3164 4.30859 64.1797 4.30859ZM64.1797 51.5078C70.8047 51.5078 76.1797 56.793 76.1797 63.3086C76.1797 69.8242 70.8047 75.1094 64.1797 75.1094C57.5508 75.1094 52.1797 69.8242 52.1797 63.3086C52.1797 56.793 57.5508 51.5078 64.1797 51.5078Z" fill="white"/>
</mask>
<g mask="url(#mask8_11_93)">
<path d="M9.29297 105.125L64.2031 63.4766L-12.9414 60.2344" fill="black" fill-opacity="0.05098"/>
</g>
</g>
<mask id="mask9_11_93" style="mask-type:alpha" maskUnits="userSpaceOnUse" x="4" y="5" width="120" height="118">
<path d="M64 5C30.8633 5 4 31.4141 4 64C4 96.5859 30.8633 123 64 123C97.1367 123 124 96.5859 124 64C124 31.4141 97.1367 5 64 5ZM64 52.1992C70.625 52.1992 76 57.4844 76 64C76 70.5156 70.625 75.8008 64 75.8008C57.3711 75.8008 52 70.5156 52 64C52 57.4844 57.3711 52.1992 64 52.1992Z" fill="black"/>
</mask>
<g mask="url(#mask9_11_93)">
<rect y="72" width="128" height="52" fill="black"/>
</g>
<path d="M64.0898 4C79.5975 4 93.7321 9.87555 104.392 19.5205C93.7513 10.0663 79.6495 4.30859 64.1797 4.30859C31.043 4.30859 4.17969 30.7227 4.17969 63.3086C4.17969 95.8945 31.043 122.309 64.1797 122.309C97.1852 122.309 123.965 96.1033 124.177 63.6953C124.178 63.8267 124.18 63.9582 124.18 64.0898C124.18 97.2773 97.2773 124.18 64.0898 124.184C30.9023 124.184 4 97.2773 4 64.0898C3.99609 30.9023 30.9023 4 64.0898 4ZM64.1797 52.3398C69.5645 52.3398 74.0591 56.0918 75.1055 61.083C73.1704 56.9371 68.9666 54.0625 64.0898 54.0625C59.4968 54.0625 55.5002 56.6086 53.4326 60.3652C54.7412 55.7368 59.0565 52.3398 64.1797 52.3398Z" fill="url(#paint1_linear_11_93)"/>
</g>
<rect x="39" y="84" width="50" height="10" fill="white"/>
<defs>
<linearGradient id="paint0_linear_11_93" x1="37.1807" y1="122.155" x2="123.453" y2="122.155" gradientUnits="userSpaceOnUse">
<stop stop-color="#DEDDDA"/>
<stop offset="0.369815" stop-color="#DEDDDA"/>
<stop offset="0.788404" stop-color="#DEDDDA"/>
<stop offset="1" stop-color="#F6F5F4"/>
</linearGradient>
<linearGradient id="paint1_linear_11_93" x1="37.1807" y1="122.155" x2="123.453" y2="122.155" gradientUnits="userSpaceOnUse">
<stop stop-color="#DEDDDA"/>
<stop offset="0.369815" stop-color="#DEDDDA"/>
<stop offset="0.788404" stop-color="#DEDDDA"/>
<stop offset="1" stop-color="#F6F5F4"/>
</linearGradient>
</defs>
</svg>
