<svg width="128" height="128" viewBox="0 0 128 128" fill="none" xmlns="http://www.w3.org/2000/svg">
<path d="M28 8H78L108.043 37.918V111.977C108.043 116.41 104.434 120 100 120H28C23.5664 120 20 116.434 20 112V16C20 11.5664 23.5664 8 28 8Z" fill="#62A0EA"/>
<path d="M78 8V30C78 34.4336 81.6094 37.9219 86.043 37.9219L108.043 37.918L78 8Z" fill="#1C71D8"/>
<g style="mix-blend-mode:luminosity">
<path d="M50.9204 82.7255L53.6451 78.0062L65.5654 98.6529H60.1161L57.3915 93.9337L54.6668 98.6529H51.9422L50.5798 96.2933L54.6668 89.2144L50.9204 82.7255Z" fill="#DEDDDA"/>
<path d="M52.9638 68.5678L58.4131 68.5678L46.4927 89.2145L43.7681 84.4952L46.4927 79.776L41.0434 79.776L39.6811 77.4164L41.0434 75.0567L49.2174 75.0567L52.9638 68.5678Z" fill="white"/>
<path d="M66.2463 63.2587L68.9709 67.9779L45.1302 67.9779L47.8548 63.2587L53.3042 63.2587L50.5795 58.5395L51.9418 56.1798L54.6665 56.1798L58.7535 63.2587L66.2463 63.2587Z" fill="#DEDDDA"/>
<path d="M77.4853 72.1072L74.7607 76.8264L62.8403 56.1797H68.2896L71.0143 60.899L73.7389 56.1797H76.4636L77.8259 58.5394L73.7389 65.6182L77.4853 72.1072Z" fill="white"/>
<path d="M75.442 86.2649L69.9926 86.2649L81.913 65.6182L84.6377 70.3375L81.913 75.0567L87.3623 75.0567L88.7247 77.4163L87.3623 79.776L79.1884 79.776L75.442 86.2649Z" fill="#DEDDDA"/>
<path d="M62.1595 91.5741L59.4348 86.8548L83.2756 86.8548L80.5509 91.5741L75.1016 91.5741L77.8263 96.2933L76.4639 98.6529L73.7393 98.6529L69.6523 91.5741L62.1595 91.5741Z" fill="white"/>
</g>
</svg>
