<svg width="12" height="12" viewBox="0 0 12 12" fill="none" xmlns="http://www.w3.org/2000/svg">
<path d="M7.79981 4.41328e-06C8.34335 4.39617e-06 8.81165 -0.00106904 9.19532 0.0302778C9.59056 0.0625872 9.98403 0.134422 10.3623 0.327153C10.9265 0.614706 11.3853 1.07353 11.6729 1.6377C11.8656 2.01595 11.9374 2.40949 11.9697 2.80469C12.0011 3.18832 12 3.65672 12 4.2002V7.79981C12 8.34328 12.0011 8.81168 11.9697 9.19532C11.9374 9.59053 11.8656 9.98405 11.6729 10.3623C11.3853 10.9265 10.9265 11.3853 10.3623 11.6729C9.98402 11.8656 9.59057 11.9374 9.19532 11.9697C8.81165 12.0011 8.34335 12 7.79981 12H4.2002C3.65665 12 3.18836 12.0011 2.80469 11.9697C2.40943 11.9374 2.016 11.8656 1.6377 11.6729C1.0735 11.3853 0.614718 10.9265 0.327153 10.3623C0.134449 9.98405 0.0625852 9.59053 0.0302779 9.19532C-0.00105582 8.81168 4.4136e-06 8.34328 4.4136e-06 7.79981V4.2002C4.1984e-06 3.65672 -0.00106617 3.18832 0.0302779 2.80469C0.0625952 2.40949 0.134427 2.01594 0.327153 1.6377C0.614732 1.07354 1.07352 0.614704 1.6377 0.327153C2.01597 0.13443 2.40946 0.0625866 2.80469 0.0302778C3.18836 -0.00106713 3.65666 4.41328e-06 4.2002 4.41328e-06H7.79981ZM2 4.2002V7.79981C2 8.37625 2.00128 8.74891 2.02442 9.03223C2.0466 9.30359 2.08419 9.40462 2.10938 9.45411C2.20521 9.64206 2.35796 9.79479 2.5459 9.89063C2.59534 9.91582 2.69619 9.95339 2.96778 9.97559C3.25112 9.99874 3.62365 10 4.2002 10H7.79981C8.0477 10 8.25787 9.99918 8.43946 9.99707L2.00293 3.56055C2.00083 3.74214 2 3.9523 2 4.2002ZM4.2002 2C3.81217 2 3.51653 2.00039 3.27832 2.00782L9.99121 8.72071C9.99861 8.48269 10 8.18724 10 7.79981V4.2002C10 3.62374 9.99874 3.25109 9.97559 2.96778C9.95339 2.69631 9.91581 2.59533 9.89063 2.5459C9.79479 2.35799 9.64203 2.2052 9.45411 2.10938C9.40465 2.08419 9.30372 2.04661 9.03223 2.02442C8.7489 2.00127 8.37635 2 7.79981 2H4.2002Z" fill="white"/>
</svg>
