<svg width="5" height="12" viewBox="0 0 5 12" fill="none" xmlns="http://www.w3.org/2000/svg">
<path d="M3 11.0233V3.90684C3 3.43839 2.99957 3.13584 2.9834 2.90438C2.96784 2.68178 2.94106 2.59687 2.92383 2.55624C2.82234 2.31702 2.62774 2.12695 2.38281 2.02782C2.34121 2.01099 2.25428 1.98483 2.02637 1.96964C1.78939 1.95384 1.47962 1.95342 1 1.95342C0.447715 1.95342 0 1.51613 0 0.976711C0 0.437289 0.447715 4.46948e-07 1 4.46948e-07C1.45214 4.46948e-07 1.84131 -0.000379122 2.16211 0.0209845C2.49194 0.0429644 2.82251 0.0913343 3.14844 0.223194C3.88321 0.520576 4.46701 1.09078 4.77148 1.80844C4.90649 2.12678 4.95601 2.44965 4.97852 2.7718C5.00039 3.08512 5 3.46524 5 3.90684V11.0233C4.99977 11.5625 4.55214 12 4 12C3.44785 12 3.00023 11.5625 3 11.0233Z" fill="white"/>
</svg>
