<svg width="12" height="12" viewBox="0 0 12 12" fill="none" xmlns="http://www.w3.org/2000/svg">
<path d="M8.56204e-05 8.50009C8.5619e-05 8.0835 -0.00472146 7.7292 0.0577028 7.41512C0.294423 6.22505 1.22505 5.29442 2.41512 5.0577C2.7292 4.99528 3.0835 5.00009 3.50009 5.00009H8.50009C9.01267 5.00009 9.12315 4.99493 9.1954 4.98055C9.59187 4.90158 9.90158 4.59187 9.98055 4.1954C9.99493 4.12315 10.0001 4.01267 10.0001 3.50009C10.0001 2.9875 9.99493 2.87702 9.98055 2.80477C9.90158 2.40831 9.59187 2.09859 9.1954 2.01962C9.12315 2.00525 9.01267 2.00009 8.50009 2.00009H1.00009C0.447801 2.00009 8.56204e-05 1.55237 8.56204e-05 1.00009C8.56204e-05 0.447801 0.447801 8.5617e-05 1.00009 8.5617e-05H8.50009C8.91668 8.5617e-05 9.27098 -0.0047214 9.58505 0.0577028C10.7751 0.294423 11.7057 1.22505 11.9425 2.41512C12.0049 2.7292 12.0001 3.0835 12.0001 3.50009C12.0001 3.91668 12.0049 4.27098 11.9425 4.58505C11.7057 5.77512 10.7751 6.70575 9.58505 6.94247C9.27098 7.00489 8.91668 7.00009 8.50009 7.00009H3.50009C2.9875 7.00009 2.87702 7.00525 2.80477 7.01962C2.40831 7.09859 2.09859 7.40831 2.01962 7.80477C2.00525 7.87702 2.00009 7.9875 2.00009 8.50009C2.00009 9.01267 2.00525 9.12315 2.01962 9.1954C2.09859 9.59187 2.40831 9.90158 2.80477 9.98055C2.87702 9.99493 2.9875 10.0001 3.50009 10.0001H11.0001C11.5524 10.0001 12.0001 10.4478 12.0001 11.0001C12.0001 11.5524 11.5524 12.0001 11.0001 12.0001H3.50009C3.0835 12.0001 2.7292 12.0049 2.41512 11.9425C1.22505 11.7057 0.294423 10.7751 0.0577028 9.58505C-0.00472139 9.27098 8.56204e-05 8.91668 8.56204e-05 8.50009Z" fill="white"/>
</svg>
