<svg width="12" height="12" viewBox="0 0 12 12" fill="none" xmlns="http://www.w3.org/2000/svg">
<path d="M10 8.47471C10 8.24086 9.99917 8.19374 9.99512 8.1544C9.97512 7.96121 9.89875 7.77785 9.77637 7.62705C9.75141 7.59633 9.7191 7.56198 9.55371 7.39658L9.15723 7.0001H1C0.447715 7.0001 6.44255e-08 6.55238 0 6.0001C0 5.44782 0.447715 5.0001 1 5.0001H9.15723L9.55371 4.60362C9.7191 4.43822 9.75141 4.40387 9.77637 4.37315C9.89875 4.22235 9.97512 4.03899 9.99512 3.8458C9.99917 3.80646 10 3.75934 10 3.52549C10 2.98679 9.99438 2.87081 9.97852 2.79502C9.89708 2.40645 9.59365 2.10302 9.20508 2.02158C9.12929 2.00572 9.01331 2.0001 8.47461 2.0001H1C0.447715 2.0001 0 1.55239 0 1.0001C0 0.447815 0.447715 0.000100229 1 0.000100229H8.47461C8.91234 0.000100229 9.28481 -0.00532097 9.61426 0.0635768C10.7806 0.307694 11.6924 1.21946 11.9365 2.38584C12.0054 2.7153 12 3.08776 12 3.52549C12 3.71875 12.0015 3.88593 11.9844 4.05186C11.9243 4.63192 11.6958 5.18224 11.3281 5.63487C11.2276 5.75855 11.1144 5.87112 10.9854 6.0001C11.1144 6.12908 11.2276 6.24165 11.3281 6.36533C11.6958 6.81796 11.9243 7.36828 11.9844 7.94834C12.0015 8.11427 12 8.28145 12 8.47471C12 8.91244 12.0054 9.2849 11.9365 9.61436C11.6924 10.7807 10.7806 11.6925 9.61426 11.9366C9.28481 12.0055 8.91234 12.0001 8.47461 12.0001H1C0.447715 12.0001 1.28851e-07 11.5524 0 11.0001C0 10.4478 0.447715 10.0001 1 10.0001H8.47461C9.01331 10.0001 9.12929 9.99448 9.20508 9.97862C9.59365 9.89718 9.89708 9.59375 9.97852 9.20518C9.99438 9.12939 10 9.01341 10 8.47471Z" fill="white"/>
</svg>
