<svg width="12" height="12" viewBox="0 0 12 12" fill="none" xmlns="http://www.w3.org/2000/svg">
<path d="M10 11V7H4.2002C3.65665 7 3.18836 7.00107 2.80469 6.96973C2.40943 6.93742 2.016 6.8656 1.6377 6.67285C1.07348 6.38528 0.614727 5.92653 0.327153 5.3623C0.134401 4.98401 0.0625888 4.59057 0.0302779 4.19531C-0.00106931 3.81164 4.41361e-06 3.34336 4.41361e-06 2.7998V1C4.41361e-06 0.447715 0.44772 0 1 0C1.55229 0 2 0.447715 2 1V2.7998C2 3.37636 2.00127 3.74889 2.02442 4.03223C2.04662 4.30381 2.08419 4.40466 2.10938 4.4541C2.20522 4.64207 2.35793 4.79479 2.5459 4.89062C2.59534 4.91581 2.69619 4.95339 2.96778 4.97559C3.25112 4.99874 3.62365 5 4.2002 5H10V1C10 0.447715 10.4477 1.28851e-07 11 0C11.5523 0 12 0.447715 12 1V11C12 11.5523 11.5523 12 11 12C10.4477 12 10 11.5523 10 11Z" fill="white"/>
</svg>
