<svg width="12" height="12" viewBox="0 0 12 12" fill="none" xmlns="http://www.w3.org/2000/svg">
<path d="M10.0001 8.50009C10.0001 7.9875 9.99493 7.87702 9.98055 7.80477C9.90158 7.40831 9.59187 7.09859 9.1954 7.01962C9.12315 7.00525 9.01267 7.00009 8.50009 7.00009H3.50009C3.0835 7.00009 2.7292 7.00489 2.41512 6.94247C1.22505 6.70575 0.294423 5.77512 0.0577028 4.58505C-0.00472146 4.27098 8.562e-05 3.91668 8.56204e-05 3.50009C8.56204e-05 3.0835 -0.00472144 2.7292 0.0577028 2.41512C0.294423 1.22505 1.22505 0.294423 2.41512 0.0577028C2.7292 -0.00472144 3.0835 8.56193e-05 3.50009 8.56193e-05H11.0001C11.5524 8.57481e-05 12.0001 0.447801 12.0001 1.00009C12.0001 1.55237 11.5524 2.00009 11.0001 2.00009H3.50009C2.9875 2.00009 2.87702 2.00525 2.80477 2.01962C2.40831 2.09859 2.09859 2.40831 2.01962 2.80477C2.00525 2.87702 2.00009 2.9875 2.00009 3.50009C2.00009 4.01267 2.00525 4.12315 2.01962 4.1954C2.09859 4.59187 2.40831 4.90158 2.80477 4.98055C2.87702 4.99493 2.9875 5.00009 3.50009 5.00009H8.50009C8.91668 5.00009 9.27098 4.99528 9.58505 5.0577C10.7751 5.29442 11.7057 6.22505 11.9425 7.41512C12.0049 7.7292 12.0001 8.0835 12.0001 8.50009C12.0001 8.91668 12.0049 9.27098 11.9425 9.58505C11.7057 10.7751 10.7751 11.7057 9.58505 11.9425C9.27098 12.0049 8.91668 12.0001 8.50009 12.0001H1.00009C0.447801 12.0001 8.57493e-05 11.5524 8.56204e-05 11.0001C8.56204e-05 10.4478 0.447801 10.0001 1.00009 10.0001H8.50009C9.01267 10.0001 9.12315 9.99493 9.1954 9.98055C9.59187 9.90158 9.90158 9.59187 9.98055 9.1954C9.99493 9.12315 10.0001 9.01267 10.0001 8.50009Z" fill="white"/>
</svg>
