<svg width="12" height="12" viewBox="0 0 12 12" fill="none" xmlns="http://www.w3.org/2000/svg">
<path d="M5.1172 9.0651e-07C6.6419 8.55993e-07 7.85081 -0.00107714 8.74858 0.0712909C9.20078 0.107745 9.62014 0.165543 9.98727 0.267582C10.3536 0.369415 10.7306 0.532666 11.0396 0.818371C11.8042 1.52559 12.1453 2.56818 11.9425 3.57915C11.8605 3.98758 11.65 4.33457 11.4123 4.62604C11.1741 4.9182 10.8668 5.20403 10.5204 5.49128C9.83279 6.06151 8.84912 6.74988 7.60854 7.61826L1.61339 11.8136C1.15479 12.1346 0.517912 12.0306 0.190338 11.5812C-0.137236 11.1318 -0.0310904 10.5077 0.427513 10.1867L6.42167 5.99031C7.69344 5.1001 8.59412 4.46896 9.202 3.9649C9.50339 3.71495 9.69798 3.524 9.81786 3.377C9.93796 3.22963 9.94318 3.17472 9.93943 3.1934C10.0071 2.85636 9.89341 2.50823 9.63848 2.27249C9.65261 2.28556 9.61549 2.24394 9.4302 2.19241C9.24547 2.14107 8.97465 2.0962 8.58116 2.06448C7.78752 2.00051 6.68038 2.00003 5.1172 2.00003H1.02045C0.456872 2.00003 0 1.55231 0 1.00001C0 0.447722 0.456872 9.0651e-07 1.02045 9.0651e-07H5.1172Z" fill="white"/>
</svg>
