<svg width="12" height="12" viewBox="0 0 12 12" fill="none" xmlns="http://www.w3.org/2000/svg">
<path d="M12.0001 4.20028V7.79989C12.0001 8.34344 12.0011 8.81173 11.9698 9.1954C11.9375 9.59066 11.8657 9.98409 11.6729 10.3624C11.3853 10.9266 10.9266 11.3854 10.3624 11.6729C9.98406 11.8657 9.59063 11.9375 9.19537 11.9698C8.8117 12.0012 8.34341 12.0001 7.79986 12.0001H1.00006C0.447771 12.0001 5.62668e-05 11.5524 5.62668e-05 11.0001C5.62668e-05 10.4478 0.447771 10.0001 1.00006 10.0001H7.79986C8.37641 10.0001 8.74895 9.99882 9.03228 9.97567C9.30387 9.95348 9.40472 9.9159 9.45416 9.89071C9.64213 9.79487 9.79484 9.64216 9.89068 9.45419C9.91587 9.40475 9.95345 9.3039 9.97564 9.03231C9.99879 8.74898 10.0001 8.37645 10.0001 7.79989V7.00009H3.50006C3.08347 7.00009 2.72917 7.00489 2.4151 6.94247C1.22502 6.70575 0.294394 5.77512 0.0576735 4.58505C-0.00475121 4.27098 5.62668e-05 3.91668 5.62668e-05 3.50009C5.62668e-05 3.0835 -0.00475121 2.7292 0.0576735 2.41513C0.294394 1.22505 1.22502 0.294424 2.4151 0.057704C2.72917 -0.00472069 3.08347 8.67844e-05 3.50006 8.67844e-05H7.79986C8.34341 8.67844e-05 8.8117 -0.000987053 9.19537 0.0303602C9.59063 0.0626707 9.98406 0.134483 10.3624 0.327235C10.9266 0.61481 11.3853 1.07356 11.6729 1.63778C11.8657 2.01608 11.9375 2.40952 11.9698 2.80477C12.0011 3.18845 12.0001 3.65673 12.0001 4.20028ZM10.0001 4.20028C10.0001 3.62373 9.99879 3.2512 9.97564 2.96786C9.95345 2.69627 9.91587 2.59542 9.89068 2.54599C9.79484 2.35802 9.64213 2.2053 9.45416 2.10946C9.40472 2.08427 9.30387 2.0467 9.03228 2.0245C8.74895 2.00135 8.37641 2.00009 7.79986 2.00009H3.50006C2.98747 2.00009 2.87699 2.00525 2.80474 2.01962C2.40828 2.09859 2.09856 2.40831 2.01959 2.80477C2.00522 2.87702 2.00006 2.9875 2.00006 3.50009C2.00006 4.01267 2.00522 4.12315 2.01959 4.1954C2.09856 4.59187 2.40828 4.90158 2.80474 4.98056C2.87699 4.99493 2.98747 5.00009 3.50006 5.00009H10.0001V4.20028Z" fill="white"/>
</svg>
