<svg width="12" height="12" viewBox="0 0 12 12" fill="none" xmlns="http://www.w3.org/2000/svg">
<path d="M5.30664 0.25C5.76229 0.141825 6.23771 0.141825 6.69336 0.25C7.68366 0.485288 8.27773 1.35315 8.72852 2.23145C9.08555 2.92709 9.45232 3.84166 9.875 4.94824L10.3184 6.11816L10.3242 6.13379L11.9414 10.6641C12.127 11.1841 11.856 11.7557 11.3359 11.9414C10.8159 12.127 10.2443 11.856 10.0586 11.3359L8.67773 7.4707H3.32227L1.94141 11.3359C1.75568 11.856 1.18411 12.127 0.664063 11.9414C0.144036 11.7557 -0.126985 11.1841 0.0585939 10.6641L1.67578 6.13379C1.67765 6.12855 1.67968 6.12337 1.68164 6.11816C2.30098 4.47558 2.79545 3.15896 3.27148 2.23145C3.72227 1.35315 4.31634 0.485288 5.30664 0.25ZM6.23145 2.19629C6.07956 2.16023 5.92044 2.16023 5.76855 2.19629C5.72344 2.20725 5.48544 2.2977 5.05078 3.14453C4.75941 3.71225 4.45133 4.47374 4.06836 5.4707H7.93164C7.54867 4.47374 7.24059 3.71225 6.94922 3.14453C6.51456 2.2977 6.27656 2.20725 6.23145 2.19629Z" fill="white"/>
</svg>
