<svg width="12" height="12" viewBox="0 0 12 12" fill="none" xmlns="http://www.w3.org/2000/svg">
<path d="M10 3.50001C10 2.67158 9.32843 2.00001 8.50001 2.00001H5.00001C4.02893 2.00001 3.40099 2.00228 2.93848 2.06446C2.50494 2.12278 2.36908 2.21686 2.29297 2.29297C2.21686 2.36908 2.12278 2.50494 2.06446 2.93848C2.00228 3.40099 2.00001 4.02893 2.00001 5.00001H8.50001C9.32843 5.00001 10 4.32843 10 3.50001ZM2.00001 7.00001C2.00001 7.97108 2.00228 8.59902 2.06446 9.06153C2.12278 9.49508 2.21686 9.63093 2.29297 9.70704C2.36908 9.78315 2.50494 9.87724 2.93848 9.93555C3.40099 9.99774 4.02893 10 5.00001 10H8.50001C9.32843 10 10 9.32843 10 8.50001C10 7.67158 9.32843 7.00001 8.50001 7.00001H2.00001ZM12 3.50001C12 4.47992 11.5962 5.36467 10.9473 6.00001C11.5962 6.63534 12 7.52009 12 8.50001C12 10.433 10.433 12 8.50001 12H5.00001C4.08547 12 3.29863 12.0022 2.67188 11.918C2.01648 11.8298 1.38849 11.6307 0.878912 11.1211C0.369331 10.6115 0.17019 9.98353 0.0820369 9.32813C-0.00222736 8.70138 5.65705e-06 7.91455 5.65705e-06 7.00001V5.00001C5.65681e-06 4.08547 -0.00222735 3.29863 0.0820369 2.67188C0.17019 2.01648 0.369331 1.38849 0.878912 0.878912C1.38849 0.369331 2.01648 0.17019 2.67188 0.0820369C3.29863 -0.00222734 4.08547 5.65654e-06 5.00001 5.65701e-06H8.50001C10.433 5.65701e-06 12 1.56701 12 3.50001Z" fill="white"/>
</svg>
