<svg width="12" height="12" viewBox="0 0 12 12" fill="none" xmlns="http://www.w3.org/2000/svg">
<path d="M5.65705e-06 7.00001V5.00001C5.65681e-06 4.08547 -0.00222735 3.29863 0.0820369 2.67188C0.17019 2.01648 0.369331 1.38849 0.878912 0.878912C1.38849 0.369331 2.01648 0.17019 2.67188 0.0820369C3.29863 -0.00222736 4.08547 5.65705e-06 5.00001 5.65705e-06H11C11.5523 5.65705e-06 12 0.447721 12 1.00001C12 1.55229 11.5523 2.00001 11 2.00001H5.00001C4.02893 2.00001 3.40099 2.00228 2.93848 2.06446C2.50494 2.12278 2.36908 2.21686 2.29297 2.29297C2.21686 2.36908 2.12278 2.50494 2.06446 2.93848C2.00228 3.40099 2.00001 4.02893 2.00001 5.00001H11C11.5523 5.00001 12 5.44772 12 6.00001C12 6.55229 11.5523 7.00001 11 7.00001H2.00001C2.00001 7.97108 2.00228 8.59902 2.06446 9.06153C2.12278 9.49508 2.21686 9.63093 2.29297 9.70704C2.36908 9.78315 2.50494 9.87724 2.93848 9.93555C3.40099 9.99774 4.02893 10 5.00001 10H11C11.5523 10 12 10.4477 12 11C12 11.5523 11.5523 12 11 12H5.00001C4.08547 12 3.29863 12.0022 2.67188 11.918C2.01648 11.8298 1.38849 11.6307 0.878912 11.1211C0.369331 10.6115 0.17019 9.98353 0.0820369 9.32813C-0.00222736 8.70138 5.65705e-06 7.91455 5.65705e-06 7.00001Z" fill="white"/>
</svg>
