<svg width="12" height="12" viewBox="0 0 12 12" fill="none" xmlns="http://www.w3.org/2000/svg">
<path d="M10 6V1C10 0.447715 10.4477 0 11 0C11.5523 1.28852e-07 12 0.447715 12 1V6C12 6.88138 12.0052 7.46824 11.9043 7.97559C11.5097 9.95899 9.95899 11.5097 7.97559 11.9043C7.46824 12.0052 6.88138 12 6 12H4.33301C1.94003 11.9998 0.000175993 10.06 0 7.66699C0 7.11471 0.447715 6.66699 1 6.66699C1.55228 6.66699 2 7.11471 2 7.66699C2.00018 8.9554 3.0446 9.99982 4.33301 10H6C6.97687 10 7.31956 9.99513 7.58496 9.94238C8.77503 9.70566 9.70566 8.77503 9.94238 7.58496C9.99513 7.31956 10 6.97687 10 6Z" fill="white"/>
</svg>
