<svg width="12" height="12" viewBox="0 0 12 12" fill="none" xmlns="http://www.w3.org/2000/svg">
<path d="M0 11.0003V1.00031C0 0.448028 0.447715 0.00031247 1 0.00031247C1.55228 0.00031247 2 0.448028 2 1.00031V4.38215L10.5527 0.105781C11.0467 -0.141208 11.6475 0.0590684 11.8945 0.553047C12.1415 1.04703 11.9412 1.64785 11.4473 1.89484L3.23633 6.00031L11.4473 10.1058C11.9412 10.3528 12.1415 10.9536 11.8945 11.4476C11.6475 11.9416 11.0467 12.1418 10.5527 11.8948L2 7.61848V11.0003C2 11.5526 1.55228 12.0003 1 12.0003C0.447715 12.0003 0 11.5526 0 11.0003Z" fill="white"/>
</svg>
