<svg width="12" height="12" viewBox="0 0 12 12" fill="none" xmlns="http://www.w3.org/2000/svg">
<path d="M5.65705e-06 7V1C5.65705e-06 0.447715 0.447721 0 1.00001 0C1.55229 0 2.00001 0.447715 2.00001 1V7C2.00001 7.97108 2.00228 8.59902 2.06446 9.06152C2.12278 9.49507 2.21686 9.63092 2.29297 9.70703C2.36908 9.78314 2.50494 9.87723 2.93848 9.93555C3.40099 9.99773 4.02893 10 5.00001 10H11C11.5523 10 12 10.4477 12 11C12 11.5523 11.5523 12 11 12H5.00001C4.08547 12 3.29863 12.0022 2.67188 11.918C2.01648 11.8298 1.38849 11.6307 0.878912 11.1211C0.369331 10.6115 0.17019 9.98353 0.0820369 9.32812C-0.00222736 8.70138 5.65705e-06 7.91454 5.65705e-06 7Z" fill="white"/>
</svg>
