<svg width="12" height="12" viewBox="0 0 12 12" fill="none" xmlns="http://www.w3.org/2000/svg">
<path d="M10 11V4.83106C10 3.68459 9.99737 2.93236 9.92872 2.42871C9.92668 2.41376 9.92297 2.39961 9.92091 2.38574C9.91031 2.39481 9.89897 2.40418 9.8877 2.41406C9.5056 2.74932 9.01056 3.31518 8.2588 4.18066C7.93009 4.5591 7.61606 4.924 7.32032 5.18164C7.00361 5.45752 6.57947 5.72757 6.01368 5.73145C6.00465 5.73151 5.99537 5.73151 5.98634 5.73145C5.42055 5.72757 4.99641 5.45752 4.6797 5.18164C4.38396 4.924 4.06993 4.5591 3.74122 4.18066C2.98946 3.31518 2.49442 2.74932 2.11231 2.41406C2.10084 2.404 2.0889 2.39496 2.07813 2.38574C2.07607 2.39957 2.07333 2.41382 2.0713 2.42871C2.00264 2.93236 2.00001 3.68459 2.00001 4.83106V11C2.00001 11.5523 1.55229 12 1.00001 12C0.447724 12 8.30156e-06 11.5523 8.30156e-06 11V4.83106C8.0058e-06 3.74997 -0.00267847 2.83102 0.0888755 2.15918C0.172015 1.54927 0.390953 0.652399 1.28223 0.309571C1.29412 0.305 1.3064 0.300242 1.31837 0.295899C2.21589 -0.0294406 2.96899 0.504275 3.43165 0.910157C3.94136 1.35736 4.542 2.0529 5.25098 2.86914C5.619 3.29283 5.82758 3.52956 5.99317 3.67383C5.99528 3.67566 5.99797 3.67696 6.00001 3.67871C6.00204 3.67696 6.00474 3.67566 6.00684 3.67383C6.17244 3.52956 6.38102 3.29283 6.74903 2.86914C7.45801 2.0529 8.05866 1.35736 8.56837 0.910157C9.03102 0.504275 9.78412 -0.0294406 10.6816 0.295899L10.7178 0.309571L10.877 0.379883C11.636 0.763022 11.8332 1.58728 11.9111 2.15918C12.0027 2.83102 12 3.74997 12 4.83106V11C12 11.5523 11.5523 12 11 12C10.4477 12 10 11.5523 10 11Z" fill="white"/>
</svg>
