<svg width="12" height="12" viewBox="0 0 12 12" fill="none" xmlns="http://www.w3.org/2000/svg">
<path d="M2.08534e-07 11.0127V6.75301C1.92423e-07 5.42358 -0.000277825 4.40552 0.0195315 3.6754C0.0294276 3.31067 0.0450438 2.99834 0.0703127 2.74498C0.0925846 2.52172 0.130767 2.23866 0.232422 1.99871C1.09914 -0.0465351 3.85076 -0.460883 5.2959 1.23606C5.46546 1.4352 5.58805 1.69381 5.67676 1.90037C5.77742 2.13475 5.88623 2.4287 6.00586 2.7739C6.24535 3.46499 6.55249 4.43709 6.9541 5.70593C7.35949 6.9867 7.65809 7.92709 7.88672 8.58685C8.0011 8.91691 8.09218 9.15861 8.16504 9.3283C8.21171 9.43696 8.24037 9.49055 8.25 9.5086C8.73134 10.0508 9.62036 9.91596 9.91406 9.25502C9.91831 9.23221 9.92832 9.17284 9.93945 9.06122C9.95774 8.87779 9.97198 8.62039 9.98145 8.27157C10.0004 7.57451 10 6.58893 10 5.24699V0.987305C10.0001 0.442134 10.4478 0 11 0C11.5522 0 11.9999 0.442134 12 0.987305V5.24699C12 6.57642 12.0003 7.59448 11.9805 8.3246C11.9706 8.68933 11.955 9.00166 11.9297 9.25502C11.9074 9.47828 11.8692 9.76134 11.7676 10.0013C10.9009 12.0465 8.14924 12.4609 6.7041 10.7639C6.53454 10.5648 6.41195 10.3062 6.32324 10.0996C6.22258 9.86525 6.11377 9.5713 5.99414 9.2261C5.75465 8.53501 5.44751 7.56291 5.0459 6.29407C4.64051 5.0133 4.34191 4.07291 4.11328 3.41314C3.9989 3.0831 3.90782 2.84139 3.83496 2.6717C3.78726 2.56063 3.758 2.50729 3.74902 2.49044C3.26806 1.95012 2.38055 2.08366 2.08594 2.74209C2.0968 2.71391 2.07884 2.75535 2.06055 2.93878C2.04226 3.12221 2.02802 3.37961 2.01855 3.72843C1.99965 4.42549 2 5.41107 2 6.75301V11.0127C1.99988 11.5579 1.55221 12 1 12C0.447791 12 0.000121824 11.5579 2.08534e-07 11.0127Z" fill="white"/>
</svg>
