<svg width="12" height="12" viewBox="0 0 12 12" fill="none" xmlns="http://www.w3.org/2000/svg">
<path d="M10 6.00005C10 5.02318 9.99517 4.68049 9.94243 4.41508C9.70571 3.22501 8.77508 2.29438 7.58501 2.05766C7.3196 2.00492 6.97691 2.00005 6.00005 2.00005C5.02318 2.00005 4.68049 2.00492 4.41508 2.05766C3.22501 2.29438 2.29438 3.22501 2.05766 4.41508C2.00492 4.68049 2.00005 5.02318 2.00005 6.00005C2.00005 6.97691 2.00492 7.3196 2.05766 7.58501C2.29438 8.77508 3.22501 9.70571 4.41508 9.94243C4.68049 9.99517 5.02318 10 6.00005 10C6.97691 10 7.3196 9.99517 7.58501 9.94243C8.77508 9.70571 9.70571 8.77508 9.94243 7.58501C9.99517 7.3196 10 6.97691 10 6.00005ZM12 6.00005C12 6.88143 12.0053 7.46829 11.9043 7.97563C11.5098 9.95904 9.95904 11.5098 7.97563 11.9043C7.46829 12.0053 6.88143 12 6.00005 12C5.11867 12 4.5318 12.0053 4.02446 11.9043C2.04105 11.5098 0.490297 9.95904 0.0957489 7.97563C-0.00516827 7.46829 4.57334e-05 6.88143 4.57334e-05 6.00005C4.57329e-05 5.11867 -0.00516827 4.5318 0.0957489 4.02446C0.490297 2.04105 2.04105 0.490297 4.02446 0.0957489C4.5318 -0.00516827 5.11867 4.57329e-05 6.00005 4.57334e-05C6.88143 4.57334e-05 7.46829 -0.00516827 7.97563 0.0957489C9.95904 0.490297 11.5098 2.04105 11.9043 4.02446C12.0053 4.5318 12 5.11867 12 6.00005Z" fill="white"/>
<path d="M7.29302 7.29302C7.68354 6.90249 8.31655 6.90249 8.70708 7.29302L11.7071 10.293C12.0976 10.6835 12.0976 11.3166 11.7071 11.7071C11.3166 12.0976 10.6835 12.0976 10.293 11.7071L7.29302 8.70708C6.90249 8.31655 6.90249 7.68354 7.29302 7.29302Z" fill="white"/>
</svg>
