<svg width="12" height="12" viewBox="0 0 12 12" fill="none" xmlns="http://www.w3.org/2000/svg">
<path d="M0.652393 0.062549C1.17017 -0.12922 1.74559 0.13474 1.93755 0.652393L3.18657 4.02544C3.9842 6.17902 4.54732 7.69146 5.07427 8.67778C5.63183 9.72135 5.9243 9.74126 6.00005 9.74126C6.0758 9.74126 6.36827 9.72135 6.92583 8.67778C7.45278 7.69146 8.0159 6.17902 8.81353 4.02544L10.0625 0.652393C10.2545 0.13474 10.8299 -0.12922 11.3477 0.062549C11.8654 0.254507 12.1293 0.829928 11.9375 1.34771L10.6885 4.71978C9.91367 6.81188 9.29679 8.48349 8.6895 9.62017C8.11274 10.6997 7.31633 11.7413 6.00005 11.7413C4.68377 11.7413 3.88736 10.6997 3.3106 9.62017C2.70331 8.48349 2.08643 6.81188 1.31157 4.71978L0.062549 1.34771C-0.12922 0.829928 0.13474 0.254507 0.652393 0.062549Z" fill="white"/>
</svg>
