<svg width="12" height="12" viewBox="0 0 12 12" fill="none" xmlns="http://www.w3.org/2000/svg">
<path d="M10.293 0.29297C10.6835 -0.0975547 11.3165 -0.0975547 11.707 0.29297C12.0975 0.683494 12.0975 1.31651 11.707 1.70703L7.41405 6L11.707 10.293C12.0975 10.6835 12.0975 11.3165 11.707 11.707C11.3165 12.0976 10.6835 12.0976 10.293 11.707L5.99999 7.41406L1.70702 11.707C1.31649 12.0976 0.683479 12.0976 0.292954 11.707C-0.0975699 11.3165 -0.09757 10.6835 0.292954 10.293L4.58592 6L0.292954 1.70703C-0.09757 1.31651 -0.09757 0.683494 0.292954 0.29297C0.683479 -0.0975548 1.31649 -0.0975548 1.70702 0.29297L5.99999 4.58594L10.293 0.29297Z" fill="white"/>
</svg>
