<svg width="12" height="12" viewBox="0 0 12 12" fill="none" xmlns="http://www.w3.org/2000/svg">
<path d="M0.984458 -4.81499e-07L5.20109 -2.97184e-07C6.47132 -2.97016e-07 7.44609 0.000384566 8.14773 0.0205076C8.49817 0.0305591 8.80032 0.045452 9.04759 0.0712889C9.26794 0.0943284 9.54408 0.133861 9.78112 0.235351L9.96475 0.321289C11.8143 1.26266 12.1691 3.83862 10.5829 5.25391C10.3897 5.42627 10.1406 5.55288 9.93879 5.64551C9.7122 5.74949 9.42995 5.86123 9.10046 5.9834C8.44115 6.22785 7.51639 6.54027 6.31149 6.94824C5.09388 7.36052 4.20116 7.66314 3.57443 7.89551C3.26108 8.01169 3.03293 8.10418 2.87262 8.17773C2.77349 8.22322 2.72286 8.25117 2.70437 8.26172C2.17877 8.74694 2.31789 9.61976 2.96683 9.91211C2.98639 9.91594 3.0427 9.92788 3.15334 9.93945C3.32837 9.95775 3.57436 9.9709 3.90803 9.98047C4.57493 9.99959 5.51561 10 6.79891 10L11.0155 10C11.5591 10.0002 12 10.4478 12 11C12 11.5522 11.5591 11.9998 11.0155 12L6.79891 12C5.52868 12 4.55391 11.9996 3.85227 11.9795C3.50183 11.9694 3.19968 11.9545 2.95241 11.9287C2.73206 11.9057 2.45592 11.8661 2.21887 11.7646C0.210637 10.9048 -0.220265 8.20703 1.41708 6.74609C1.6103 6.57373 1.85938 6.44712 2.06121 6.35449C2.2878 6.25051 2.57005 6.13877 2.89954 6.0166C3.55885 5.77215 4.48361 5.45973 5.68851 5.05176C6.90612 4.63948 7.79884 4.33687 8.42557 4.10449C8.73892 3.98831 8.96707 3.89582 9.12738 3.82227C9.22651 3.77678 9.27714 3.74883 9.29563 3.73828C9.82111 3.25317 9.68268 2.37946 9.03413 2.08691C9.01529 2.08323 8.95875 2.07227 8.84666 2.06055C8.67163 2.04225 8.42564 2.0291 8.09197 2.01953C7.42507 2.00041 6.48439 2 5.20109 2L0.984458 2C0.440931 1.99979 0 1.55216 0 1C9.53674e-07 0.447844 0.440932 0.000208364 0.984458 -4.81499e-07Z" fill="white"/>
</svg>
