<svg width="16" height="16" viewBox="0 0 16 16" fill="none" xmlns="http://www.w3.org/2000/svg">
<path d="M12.3832 3.34961C12.3832 3.05744 12.383 2.88298 12.3724 2.75391C12.3626 2.63386 12.3475 2.62034 12.3558 2.63672C12.3319 2.58968 12.2935 2.55131 12.2464 2.52734C12.2628 2.53569 12.2495 2.52058 12.1293 2.51074C12.0002 2.50019 11.8258 2.5 11.5336 2.5H4.46617C4.17406 2.5 3.99952 2.5002 3.87047 2.51074C3.75049 2.52058 3.73691 2.53569 3.75328 2.52734C3.70624 2.55131 3.66787 2.58968 3.64391 2.63672C3.65225 2.62034 3.63714 2.63384 3.62731 2.75391C3.61676 2.88298 3.61656 3.05744 3.61656 3.34961V7.5H12.3832V3.34961ZM1.94273 12.3154C1.77783 12.7009 1.67504 12.9435 1.61559 13.127C1.58026 13.236 1.57312 13.2881 1.57164 13.3047C1.585 13.3642 1.61985 13.4164 1.6693 13.4521C1.68502 13.4573 1.73562 13.471 1.84996 13.4814C2.042 13.4989 2.30569 13.5 2.72496 13.5H13.2757C13.6947 13.5 13.9578 13.4989 14.1498 13.4814C14.2644 13.471 14.3148 13.4563 14.3304 13.4512C14.3796 13.4155 14.4137 13.364 14.4271 13.3047C14.4256 13.288 14.4194 13.2358 14.3841 13.127C14.3247 12.9435 14.2219 12.7009 14.057 12.3154L12.638 9H3.36168L1.94273 12.3154ZM9.00035 11.25C9.41441 11.2502 9.75035 11.5859 9.75035 12C9.75035 12.4141 9.41441 12.7498 9.00035 12.75H7.00035C6.58614 12.75 6.25035 12.4142 6.25035 12C6.25035 11.5858 6.58614 11.25 7.00035 11.25H9.00035ZM13.8832 8.0957L15.4359 11.7256C15.5894 12.0844 15.7254 12.4004 15.8109 12.6641C15.8967 12.9289 15.9674 13.2419 15.9037 13.5771C15.8163 14.0358 15.5488 14.4414 15.1615 14.7021C14.8784 14.8926 14.5627 14.9504 14.2855 14.9756C14.0096 15.0007 13.6658 15 13.2757 15H2.72496C2.33459 15 1.9903 15.0007 1.71422 14.9756C1.43699 14.9503 1.12137 14.8926 0.838242 14.7021C0.450908 14.4414 0.183451 14.0358 0.0960549 13.5771C0.0323038 13.242 0.103004 12.9288 0.188828 12.6641C0.274313 12.4004 0.410334 12.0844 0.563828 11.7256L2.11656 8.0957V3.34961C2.11656 3.08211 2.11647 2.83611 2.13316 2.63184C2.15059 2.41879 2.1897 2.18527 2.30699 1.95508C2.47478 1.62588 2.7434 1.35818 3.07262 1.19043C3.30262 1.07335 3.53553 1.03402 3.7484 1.0166C3.95265 0.999913 4.19871 0.999999 4.46617 1H11.5336C11.8011 1 12.047 0.999908 12.2513 1.0166C12.4644 1.03402 12.6978 1.07311 12.9281 1.19043C13.2572 1.35816 13.525 1.62596 13.6927 1.95508C13.81 2.18529 13.8501 2.41877 13.8675 2.63184C13.8842 2.83611 13.8832 3.08211 13.8832 3.34961V8.0957Z" fill="#2E3436"/>
</svg>
