<svg width="16" height="16" viewBox="0 0 16 16" fill="none" xmlns="http://www.w3.org/2000/svg">
<g clip-path="url(#clip0_296_623)">
<path fill-rule="evenodd" clip-rule="evenodd" d="M9.75488 0.701667C10.0477 0.408897 10.5225 0.409144 10.8154 0.701667C11.1083 0.99456 11.1083 1.46932 10.8154 1.76221L9.06055 3.51807H11.2002L12.3125 3.52296C13.2877 3.53828 13.881 3.59997 14.3623 3.84522C14.9265 4.1328 15.3853 4.59157 15.6729 5.15577C15.9997 5.79746 16 6.63798 16 8.31788V10.7183L15.9951 11.8306C15.9798 12.8057 15.9181 13.3991 15.6729 13.8804L15.5576 14.0864C15.2694 14.5564 14.8561 14.9392 14.3623 15.1909L14.2393 15.2485C13.7793 15.4461 13.2065 15.4991 12.3125 15.5132L11.2002 15.5181H4.7998C3.11984 15.5181 2.2794 15.5179 1.6377 15.1909C1.14385 14.9392 0.730568 14.5564 0.442383 14.0864L0.327148 13.8804C0.0819172 13.3991 0.0202113 12.8057 0.00488281 11.8306L0 10.7183V8.31788C4.62282e-10 6.74289 0.000134677 5.90601 0.269531 5.27882L0.327148 5.15577C0.578861 4.66191 0.9617 4.24864 1.43164 3.96046L1.6377 3.84522C2.27941 3.51825 3.11978 3.51807 4.7998 3.51807H6.93945L5.18359 1.76221C4.89102 1.46932 4.89087 0.994465 5.18359 0.701667C5.47639 0.408874 5.95122 0.409074 6.24414 0.701667L7.99902 2.45655L9.75488 0.701667ZM4.7998 5.01807C3.93534 5.01807 3.37708 5.01951 2.95215 5.05421C2.54543 5.08744 2.39365 5.14337 2.31934 5.18116C2.03713 5.32497 1.80688 5.55519 1.66309 5.83741C1.6253 5.91178 1.56934 6.06376 1.53613 6.47022C1.50146 6.89513 1.5 7.45353 1.5 8.31788V10.7183C1.5 11.5826 1.50144 12.141 1.53613 12.5659C1.56937 12.9725 1.6253 13.1244 1.66309 13.1987C1.8069 13.4809 2.03714 13.7112 2.31934 13.855C2.39368 13.8928 2.54555 13.9487 2.95215 13.9819C3.37707 14.0166 3.93535 14.0181 4.7998 14.0181H11.2002C12.0647 14.0181 12.6229 14.0166 13.0479 13.9819C13.4544 13.9487 13.6063 13.8928 13.6807 13.855C13.9629 13.7112 14.1931 13.4809 14.3369 13.1987C14.3747 13.1244 14.4306 12.9725 14.4639 12.5659C14.4986 12.141 14.5 11.5826 14.5 10.7183V8.31788C14.5 7.45353 14.4985 6.89513 14.4639 6.47022C14.4307 6.06376 14.3747 5.91178 14.3369 5.83741C14.1931 5.55519 13.9629 5.32497 13.6807 5.18116C13.6063 5.14337 13.4546 5.08744 13.0479 5.05421C12.6229 5.01951 12.0647 5.01807 11.2002 5.01807H4.7998Z" fill="#2E3436"/>
</g>
<defs>
<clipPath id="clip0_296_623">
<rect width="16" height="16" fill="white"/>
</clipPath>
</defs>
</svg>
