<svg width="16" height="16" viewBox="0 0 16 16" fill="none" xmlns="http://www.w3.org/2000/svg">
<path d="M4.75 8H0.75" stroke="white" stroke-width="1.5" stroke-linecap="round" stroke-linejoin="round"/>
<path d="M12.0498 3.5C12.5975 3.5 13.0537 3.49897 13.4248 3.5293C13.8045 3.56033 14.1609 3.62809 14.498 3.7998C15.0155 4.06346 15.4365 4.48451 15.7002 5.00195C15.8719 5.3391 15.9397 5.69546 15.9707 6.0752C16.001 6.44632 16 6.90252 16 7.4502V8.5498C16 9.09748 16.001 9.55368 15.9707 9.9248C15.9397 10.3045 15.8719 10.6609 15.7002 10.998C15.4365 11.5155 15.0155 11.9365 14.498 12.2002C14.1609 12.3719 13.8045 12.4397 13.4248 12.4707C13.0537 12.501 12.5975 12.5 12.0498 12.5H10.9502C10.4025 12.5 9.94632 12.501 9.5752 12.4707C9.19546 12.4397 8.8391 12.3719 8.50195 12.2002C7.98451 11.9365 7.56346 11.5155 7.2998 10.998C7.12809 10.6609 7.06033 10.3045 7.0293 9.9248C6.99897 9.55368 7 9.09748 7 8.5498V7.4502C7 6.90252 6.99897 6.44632 7.0293 6.0752C7.06033 5.69546 7.12809 5.3391 7.2998 5.00195C7.56346 4.48451 7.98451 4.06346 8.50195 3.7998C8.8391 3.62809 9.19546 3.56033 9.5752 3.5293C9.94632 3.49897 10.4025 3.5 10.9502 3.5H12.0498ZM8.52441 6.19727C8.50024 6.49314 8.5 6.87777 8.5 7.4502V8.5498C8.5 9.12223 8.50024 9.50686 8.52441 9.80273C8.54788 10.0897 8.59059 10.2268 8.63672 10.3174C8.75655 10.5525 8.9475 10.7435 9.18262 10.8633C9.27316 10.9094 9.41027 10.9521 9.69727 10.9756C9.99314 10.9998 10.3778 11 10.9502 11H12.0498C12.6222 11 13.0069 10.9998 13.3027 10.9756C13.3386 10.9727 13.3719 10.9674 13.4033 10.9639L8.53516 6.0957C8.53162 6.12735 8.52737 6.16106 8.52441 6.19727ZM10.9502 5C10.3778 5 9.99314 5.00024 9.69727 5.02441C9.66106 5.02737 9.62735 5.03162 9.5957 5.03516L14.4639 9.90332C14.4674 9.87192 14.4727 9.83861 14.4756 9.80273C14.4998 9.50686 14.5 9.12223 14.5 8.5498V7.4502C14.5 6.87777 14.4998 6.49314 14.4756 6.19727C14.4521 5.91027 14.4094 5.77316 14.3633 5.68262C14.2435 5.4475 14.0525 5.25655 13.8174 5.13672C13.7268 5.09059 13.5897 5.04788 13.3027 5.02441C13.0069 5.00024 12.6222 5 12.0498 5H10.9502Z" fill="white"/>
</svg>
