<svg width="16" height="16" viewBox="0 0 16 16" fill="none" xmlns="http://www.w3.org/2000/svg">
<path d="M4.75 7.25C5.16421 7.25 5.5 7.58579 5.5 8C5.5 8.41421 5.16421 8.75 4.75 8.75H0.75C0.335786 8.75 0 8.41421 0 8C0 7.58579 0.335786 7.25 0.75 7.25H4.75Z" fill="#2E3436"/>
<path fill-rule="evenodd" clip-rule="evenodd" d="M12.0498 3.5C12.5975 3.5 13.0537 3.49898 13.4248 3.5293C13.8045 3.56033 14.1609 3.6281 14.4981 3.79981C15.0155 4.06346 15.4365 4.48451 15.7002 5.00196C15.8719 5.3391 15.9397 5.69547 15.9707 6.0752C16.001 6.44633 16 6.90252 16 7.4502V8.54981C16 9.09749 16.001 9.55368 15.9707 9.92481C15.9397 10.3045 15.8719 10.6609 15.7002 10.9981C15.4365 11.5155 15.0155 11.9365 14.4981 12.2002C14.1609 12.3719 13.8045 12.4397 13.4248 12.4707C13.0537 12.501 12.5975 12.5 12.0498 12.5H10.9502C10.4025 12.5 9.94633 12.501 9.5752 12.4707C9.19547 12.4397 8.8391 12.3719 8.50196 12.2002C7.98451 11.9365 7.56346 11.5155 7.29981 10.9981C7.1281 10.6609 7.06033 10.3045 7.0293 9.92481C6.99898 9.55368 7 9.09749 7 8.54981V7.4502C7 6.90252 6.99898 6.44633 7.0293 6.0752C7.06033 5.69547 7.1281 5.3391 7.29981 5.00196C7.56346 4.48451 7.98451 4.06346 8.50196 3.79981C8.8391 3.6281 9.19547 3.56033 9.5752 3.5293C9.94633 3.49898 10.4025 3.5 10.9502 3.5H12.0498ZM8.52442 6.19727C8.50024 6.49315 8.5 6.87777 8.5 7.4502V8.54981C8.5 9.12224 8.50024 9.50686 8.52442 9.80274C8.54788 10.0897 8.59059 10.2268 8.63672 10.3174C8.75655 10.5525 8.94751 10.7435 9.18262 10.8633C9.27316 10.9094 9.41027 10.9521 9.69727 10.9756C9.99315 10.9998 10.3778 11 10.9502 11H12.0498C12.6222 11 13.0069 10.9998 13.3027 10.9756C13.3386 10.9727 13.3719 10.9674 13.4033 10.9639L8.53516 6.09571C8.53162 6.12735 8.52738 6.16106 8.52442 6.19727ZM10.9502 5C10.3778 5 9.99315 5.00024 9.69727 5.02442C9.66106 5.02738 9.62735 5.03162 9.59571 5.03516L14.4639 9.90332C14.4674 9.87193 14.4727 9.83862 14.4756 9.80274C14.4998 9.50686 14.5 9.12224 14.5 8.54981V7.4502C14.5 6.87777 14.4998 6.49315 14.4756 6.19727C14.4521 5.91027 14.4094 5.77316 14.3633 5.68262C14.2435 5.44751 14.0525 5.25655 13.8174 5.13672C13.7268 5.09059 13.5897 5.04788 13.3027 5.02442C13.0069 5.00024 12.6222 5 12.0498 5H10.9502Z" fill="#2E3436"/>
</svg>
