<svg width="16" height="16" viewBox="0 0 16 16" fill="none" xmlns="http://www.w3.org/2000/svg">
<path d="M8.2002 14.5V16H7.7998V14.5H8.2002ZM11.5 11.2002V4.7998C11.5 3.93534 11.4986 3.37708 11.4639 2.95215C11.4306 2.54542 11.3747 2.39365 11.3369 2.31934C11.1931 2.03709 10.9629 1.8069 10.6807 1.66309C10.6063 1.6253 10.4546 1.56936 10.0479 1.53613C9.62292 1.50144 9.06466 1.5 8.2002 1.5H7.7998C6.93534 1.5 6.37708 1.50144 5.95215 1.53613C5.54542 1.56936 5.39365 1.6253 5.31934 1.66309C5.03709 1.8069 4.8069 2.03709 4.66309 2.31934C4.6253 2.39365 4.56936 2.54542 4.53613 2.95215C4.50144 3.37708 4.5 3.93534 4.5 4.7998V11.2002C4.5 12.0647 4.50144 12.6229 4.53613 13.0479C4.56936 13.4546 4.6253 13.6063 4.66309 13.6807C4.8069 13.9629 5.03709 14.1931 5.31934 14.3369C5.39365 14.3747 5.54542 14.4306 5.95215 14.4639C6.37708 14.4986 6.93534 14.5 7.7998 14.5V16C6.11978 16 5.27941 15.9998 4.6377 15.6729C4.14381 15.4211 3.73057 15.0383 3.44238 14.5684L3.32715 14.3623C3.0819 13.881 3.02021 13.2877 3.00488 12.3125L3 11.2002V4.7998C3 3.22468 3.00007 2.38795 3.26953 1.76074L3.32715 1.6377C3.57888 1.14381 3.96166 0.730572 4.43164 0.442383L4.6377 0.327148C5.27941 0.000180691 6.11978 4.91912e-10 7.7998 0H8.2002L9.3125 0.00488281C10.2877 0.0202065 10.881 0.0819019 11.3623 0.327148C11.9265 0.614723 12.3853 1.07347 12.6729 1.6377C12.9998 2.27941 13 3.11978 13 4.7998V11.2002L12.9951 12.3125C12.9798 13.2877 12.9181 13.881 12.6729 14.3623L12.5576 14.5684C12.2694 15.0383 11.8562 15.4211 11.3623 15.6729L11.2393 15.7305C10.7793 15.9281 10.2066 15.9811 9.3125 15.9951L8.2002 16V14.5C9.06466 14.5 9.62292 14.4986 10.0479 14.4639C10.4546 14.4306 10.6063 14.3747 10.6807 14.3369C10.9629 14.1931 11.1931 13.9629 11.3369 13.6807C11.3747 13.6063 11.4306 13.4546 11.4639 13.0479C11.4986 12.6229 11.5 12.0647 11.5 11.2002ZM9.5 2.75C9.91421 2.75 10.25 3.08579 10.25 3.5C10.25 3.91421 9.91421 4.25 9.5 4.25H6.5C6.08579 4.25 5.75 3.91421 5.75 3.5C5.75 3.08579 6.08579 2.75 6.5 2.75H9.5Z" fill="#2E3436"/>
</svg>
