<svg width="16" height="16" viewBox="0 0 16 16" fill="none" xmlns="http://www.w3.org/2000/svg">
<path d="M9 4.25C9.41421 4.25 9.75 4.58579 9.75 5C9.75 5.41421 9.41421 5.75 9 5.75H7C6.58579 5.75 6.25 5.41421 6.25 5C6.25 4.58579 6.58579 4.25 7 4.25H9Z" fill="#2E3436"/>
<path fill-rule="evenodd" clip-rule="evenodd" d="M11.2002 14H4.7998C3.11978 14 2.27941 13.9998 1.6377 13.6729C1.14381 13.4211 0.730572 13.0383 0.442383 12.5684L0.327148 12.3623C0.0819019 11.881 0.0202065 11.2877 0.00488281 10.3125L0 9.2002V6.7998C4.61195e-10 5.22468 6.84261e-05 4.38795 0.269531 3.76074L0.327148 3.6377C0.578875 3.14381 0.961662 2.73057 1.43164 2.44238L1.6377 2.32715C2.27941 2.00018 3.11978 2 4.7998 2H11.2002L12.3125 2.00488C13.2877 2.02021 13.881 2.0819 14.3623 2.32715C14.9265 2.61472 15.3853 3.07347 15.6729 3.6377C15.9998 4.27941 16 5.11978 16 6.7998V9.2002L15.9951 10.3125C15.9798 11.2877 15.9181 11.881 15.6729 12.3623L15.5576 12.5684C15.2694 13.0383 14.8562 13.4211 14.3623 13.6729L14.2393 13.7305C13.7793 13.9281 13.2066 13.9811 12.3125 13.9951L11.2002 14ZM11.2002 12.5H4.7998C3.93534 12.5 3.37708 12.4986 2.95215 12.4639C2.54542 12.4306 2.39365 12.3747 2.31934 12.3369C2.03709 12.1931 1.8069 11.9629 1.66309 11.6807C1.6253 11.6063 1.56936 11.4546 1.53613 11.0479C1.50144 10.6229 1.5 10.0647 1.5 9.2002V6.7998C1.5 5.93534 1.50144 5.37708 1.53613 4.95215C1.56936 4.54542 1.6253 4.39365 1.66309 4.31934C1.8069 4.03709 2.03709 3.8069 2.31934 3.66309C2.39365 3.6253 2.54542 3.56936 2.95215 3.53613C3.37708 3.50144 3.93534 3.5 4.7998 3.5H11.2002C12.0647 3.5 12.6229 3.50144 13.0479 3.53613C13.4546 3.56936 13.6063 3.6253 13.6807 3.66309C13.9629 3.8069 14.1931 4.03709 14.3369 4.31934C14.3747 4.39365 14.4306 4.54542 14.4639 4.95215C14.4986 5.37708 14.5 5.93534 14.5 6.7998V9.2002C14.5 10.0647 14.4986 10.6229 14.4639 11.0479C14.4306 11.4546 14.3747 11.6063 14.3369 11.6807C14.1931 11.9629 13.9629 12.1931 13.6807 12.3369C13.6063 12.3747 13.4546 12.4306 13.0479 12.4639C12.6229 12.4986 12.0647 12.5 11.2002 12.5Z" fill="#2E3436"/>
</svg>
