<svg width="16" height="16" viewBox="0 0 16 16" fill="none" xmlns="http://www.w3.org/2000/svg">
<path d="M11.2002 11.5V13H4.7998V11.5H11.2002ZM14.5 8.2002V7.7998C14.5 6.93534 14.4986 6.37708 14.4639 5.95215C14.4306 5.54542 14.3747 5.39365 14.3369 5.31934C14.1931 5.03709 13.9629 4.8069 13.6807 4.66309C13.6063 4.6253 13.4546 4.56936 13.0479 4.53613C12.6229 4.50144 12.0647 4.5 11.2002 4.5H4.7998C3.93534 4.5 3.37708 4.50144 2.95215 4.53613C2.54542 4.56936 2.39365 4.6253 2.31934 4.66309C2.03709 4.8069 1.8069 5.03709 1.66309 5.31934C1.6253 5.39365 1.56936 5.54542 1.53613 5.95215C1.50144 6.37708 1.5 6.93534 1.5 7.7998V8.2002C1.5 9.06466 1.50144 9.62292 1.53613 10.0479C1.56936 10.4546 1.6253 10.6063 1.66309 10.6807C1.8069 10.9629 2.03709 11.1931 2.31934 11.3369C2.39365 11.3747 2.54542 11.4306 2.95215 11.4639C3.37708 11.4986 3.93534 11.5 4.7998 11.5V13C3.11978 13 2.27941 12.9998 1.6377 12.6729C1.14381 12.4211 0.730572 12.0383 0.442383 11.5684L0.327148 11.3623C0.0819019 10.881 0.0202065 10.2877 0.00488281 9.3125L0 8.2002V7.7998C4.61195e-10 6.22468 6.84261e-05 5.38795 0.269531 4.76074L0.327148 4.6377C0.578875 4.14381 0.961662 3.73057 1.43164 3.44238L1.6377 3.32715C2.27941 3.00018 3.11978 3 4.7998 3H11.2002L12.3125 3.00488C13.2877 3.02021 13.881 3.0819 14.3623 3.32715C14.9265 3.61472 15.3853 4.07347 15.6729 4.6377C15.9998 5.27941 16 6.11978 16 7.7998V8.2002L15.9951 9.3125C15.9798 10.2877 15.9181 10.881 15.6729 11.3623L15.5576 11.5684C15.2694 12.0383 14.8562 12.4211 14.3623 12.6729L14.2393 12.7305C13.7793 12.9281 13.2066 12.9811 12.3125 12.9951L11.2002 13V11.5C12.0647 11.5 12.6229 11.4986 13.0479 11.4639C13.4546 11.4306 13.6063 11.3747 13.6807 11.3369C13.9629 11.1931 14.1931 10.9629 14.3369 10.6807C14.3747 10.6063 14.4306 10.4546 14.4639 10.0479C14.4986 9.62292 14.5 9.06466 14.5 8.2002Z" fill="#2E3436"/>
<path d="M13 9.5C13 10.0523 12.5523 10.5 12 10.5C11.4477 10.5 11 10.0523 11 9.5C11 8.94772 11.4477 8.5 12 8.5C12.5523 8.5 13 8.94772 13 9.5Z" fill="#2E3436"/>
<path d="M4 9.75C4 10.1642 3.66421 10.5 3.25 10.5C2.83579 10.5 2.5 10.1642 2.5 9.75V9.25C2.5 8.83579 2.83579 8.5 3.25 8.5C3.66421 8.5 4 8.83579 4 9.25V9.75Z" fill="#2E3436"/>
<path d="M6 9.75C6 10.1642 5.66421 10.5 5.25 10.5C4.83579 10.5 4.5 10.1642 4.5 9.75V9.25C4.5 8.83579 4.83579 8.5 5.25 8.5C5.66421 8.5 6 8.83579 6 9.25V9.75Z" fill="#2E3436"/>
</svg>
