<?xml version="1.0" encoding="UTF-8" standalone="no"?>
<svg
   height="16px"
   viewBox="0 0 16 16"
   width="16px"
   version="1.1"
   id="svg4"
   sodipodi:docname="system-user-symbolic.svg"
   inkscape:version="1.4.2 (ebf0e940d0, 2025-05-08)"
   xmlns:inkscape="http://www.inkscape.org/namespaces/inkscape"
   xmlns:sodipodi="http://sodipodi.sourceforge.net/DTD/sodipodi-0.dtd"
   xmlns="http://www.w3.org/2000/svg"
   xmlns:svg="http://www.w3.org/2000/svg">
  <defs
     id="defs4" />
  <sodipodi:namedview
     id="namedview4"
     pagecolor="#ffffff"
     bordercolor="#000000"
     borderopacity="0.25"
     inkscape:showpageshadow="2"
     inkscape:pageopacity="0.0"
     inkscape:pagecheckerboard="0"
     inkscape:deskcolor="#d1d1d1"
     inkscape:zoom="26.339728"
     inkscape:cx="4.4799248"
     inkscape:cy="8.2005404"
     inkscape:window-width="1708"
     inkscape:window-height="1387"
     inkscape:window-x="35"
     inkscape:window-y="32"
     inkscape:window-maximized="0"
     inkscape:current-layer="g4" />
  <g
     fill="#2e3436"
     id="g4">
    <g
       id="g5"
       transform="matrix(1.3333333,0,0,1.3333333,-6.6666663,-5.2817417)">
      <path
         d="M 13.5,6.5 C 13.5,7.878906 12.378906,9 11,9 9.617188,9 8.5,7.878906 8.5,6.5 8.5,5.117188 9.617188,4 11,4 c 1.378906,0 2.5,1.117188 2.5,2.5 z m 0,0"
         id="path1" />
      <path
         d="m 9,10 c -1.664062,0 -3,1.335938 -3,3 v 2 c 0,0.554688 0.445312,1 1,1 h 8 c 0.554688,0 1,-0.445312 1,-1 v -2 c 0,-1.664062 -1.339844,-3 -3,-3 z m 0,0"
         id="path4" />
    </g>
  </g>
</svg>
