<?xml version="1.0" encoding="UTF-8" standalone="no"?>
<svg
   height="128px"
   viewBox="0 0 128 128"
   width="128px"
   version="1.1"
   id="svg53"
   sodipodi:docname="org.gnome.Connections.svg"
   inkscape:version="1.4 (e7c3feb100, 2024-10-09)"
   xmlns:inkscape="http://www.inkscape.org/namespaces/inkscape"
   xmlns:sodipodi="http://sodipodi.sourceforge.net/DTD/sodipodi-0.dtd"
   xmlns="http://www.w3.org/2000/svg"
   xmlns:svg="http://www.w3.org/2000/svg">
  <defs
     id="defs53" />
  <sodipodi:namedview
     id="namedview53"
     pagecolor="#ffffff"
     bordercolor="#000000"
     borderopacity="0.25"
     inkscape:showpageshadow="2"
     inkscape:pageopacity="0.0"
     inkscape:pagecheckerboard="0"
     inkscape:deskcolor="#d1d1d1"
     inkscape:zoom="6.40625"
     inkscape:cx="64.078049"
     inkscape:cy="64"
     inkscape:window-width="1920"
     inkscape:window-height="1011"
     inkscape:window-x="0"
     inkscape:window-y="0"
     inkscape:window-maximized="1"
     inkscape:current-layer="svg53" />
  <clipPath
     id="a">
    <path
       d="m 4 4 h 120 v 120 h -120 z m 0 0"
       id="path1" />
  </clipPath>
  <clipPath
     id="b">
    <path
       d="m 123.996094 64 c 0 33.132812 -26.863282 59.996094 -59.996094 59.996094 s -59.996094 -26.863282 -59.996094 -59.996094 s 26.863282 -59.996094 59.996094 -59.996094 s 59.996094 26.863282 59.996094 59.996094 z m 0 0"
       id="path2" />
  </clipPath>
  <clipPath
     id="c">
    <path
       d="m 4 4 h 120 v 116 h -120 z m 0 0"
       id="path3" />
  </clipPath>
  <clipPath
     id="d">
    <path
       d="m 123.996094 64 c 0 33.132812 -26.863282 59.996094 -59.996094 59.996094 s -59.996094 -26.863282 -59.996094 -59.996094 s 26.863282 -59.996094 59.996094 -59.996094 s 59.996094 26.863282 59.996094 59.996094 z m 0 0"
       id="path4" />
  </clipPath>
  <clipPath
     id="e">
    <path
       d="m 68 27 h 56 v 71 h -56 z m 0 0"
       id="path5" />
  </clipPath>
  <clipPath
     id="f">
    <path
       d="m 123.996094 64 c 0 33.132812 -26.863282 59.996094 -59.996094 59.996094 s -59.996094 -26.863282 -59.996094 -59.996094 s 26.863282 -59.996094 59.996094 -59.996094 s 59.996094 26.863282 59.996094 59.996094 z m 0 0"
       id="path6" />
  </clipPath>
  <clipPath
     id="g">
    <path
       d="m 62 21 h 12 v 19 h -12 z m 0 0"
       id="path7" />
  </clipPath>
  <clipPath
     id="h">
    <path
       d="m 123.996094 64 c 0 33.132812 -26.863282 59.996094 -59.996094 59.996094 s -59.996094 -26.863282 -59.996094 -59.996094 s 26.863282 -59.996094 59.996094 -59.996094 s 59.996094 26.863282 59.996094 59.996094 z m 0 0"
       id="path8" />
  </clipPath>
  <clipPath
     id="i">
    <path
       d="m 83 12 h 29 v 11 h -29 z m 0 0"
       id="path9" />
  </clipPath>
  <clipPath
     id="j">
    <path
       d="m 123.996094 64 c 0 33.132812 -26.863282 59.996094 -59.996094 59.996094 s -59.996094 -26.863282 -59.996094 -59.996094 s 26.863282 -59.996094 59.996094 -59.996094 s 59.996094 26.863282 59.996094 59.996094 z m 0 0"
       id="path10" />
  </clipPath>
  <clipPath
     id="k">
    <path
       d="m 4 7 h 45 v 112 h -45 z m 0 0"
       id="path11" />
  </clipPath>
  <clipPath
     id="l">
    <path
       d="m 123.996094 64 c 0 33.132812 -26.863282 59.996094 -59.996094 59.996094 s -59.996094 -26.863282 -59.996094 -59.996094 s 26.863282 -59.996094 59.996094 -59.996094 s 59.996094 26.863282 59.996094 59.996094 z m 0 0"
       id="path12" />
  </clipPath>
  <linearGradient
     id="m"
     gradientTransform="matrix(0.192655 0 0 0.25 38.752536 10.999994)"
     gradientUnits="userSpaceOnUse"
     x1="48"
     x2="464"
     y1="44"
     y2="44">
    <stop
       offset="0"
       stop-color="#3d3846"
       id="stop12" />
    <stop
       offset="0.05"
       stop-color="#77767b"
       id="stop13" />
    <stop
       offset="0.1"
       stop-color="#3d3846"
       id="stop14" />
    <stop
       offset="0.899999"
       stop-color="#3d3846"
       id="stop15" />
    <stop
       offset="0.95"
       stop-color="#77767b"
       id="stop16" />
    <stop
       offset="1"
       stop-color="#3d3846"
       id="stop17" />
  </linearGradient>
  <linearGradient
     id="n"
     gradientUnits="userSpaceOnUse"
     x1="-136.212692"
     x2="300.910431"
     y1="979.674214"
     y2="862.547383">
    <stop
       offset="0"
       stop-color="#9141ac"
       id="stop18" />
    <stop
       offset="0.227896"
       stop-color="#33d17a"
       id="stop19"
       style="stop-color:#724dd9;stop-opacity:1;" />
    <stop
       offset="0.51072198"
       stop-color="#f5c211"
       id="stop20"
       style="stop-color:#a84098;stop-opacity:1;" />
    <stop
       offset="0.789213"
       stop-color="#e66100"
       id="stop21"
       style="stop-color:#9b4db3;stop-opacity:1;" />
    <stop
       offset="1"
       stop-color="#26a269"
       id="stop22"
       style="stop-color:#c72170;stop-opacity:1;" />
  </linearGradient>
  <linearGradient
     id="o"
     gradientUnits="userSpaceOnUse"
     x1="85.99996119305"
     x2="109.44605422979"
     y1="25.68808626232"
     y2="24.83250689333">
    <stop
       offset="0"
       stop-color="#787878"
       id="stop23" />
    <stop
       offset="1"
       stop-color="#787878"
       stop-opacity="0"
       id="stop24" />
  </linearGradient>
  <g
     clip-path="url(#a)"
     id="g25">
    <g
       clip-path="url(#b)"
       id="g24">
      <path
         d="m 123.996094 64 c 0 33.132812 -26.863282 59.996094 -59.996094 59.996094 s -59.996094 -26.863282 -59.996094 -59.996094 s 26.863282 -59.996094 59.996094 -59.996094 s 59.996094 26.863282 59.996094 59.996094 z m 0 0"
         fill="#5e2a6f"
         id="path24" />
    </g>
  </g>
  <g
     clip-path="url(#c)"
     id="g27">
    <g
       clip-path="url(#d)"
       id="g26">
      <path
         d="m 123.996094 59.511719 c 0 33.132812 -26.863282 59.992187 -59.996094 59.992187 s -59.996094 -26.859375 -59.996094 -59.992187 c 0 -33.136719 26.863282 -59.996094 59.996094 -59.996094 s 59.996094 26.859375 59.996094 59.996094 z m 0 0"
         fill="#682e7b"
         id="path25" />
    </g>
  </g>
  <g
     clip-path="url(#e)"
     id="g29">
    <g
       clip-path="url(#f)"
       id="g28">
      <path
         d="m 83.730469 34.875 v 3.035156 c 0 3.929688 -3.1875 7.117188 -7.117188 7.117188 c -4.726562 0.351562 -8.273437 4.46875 -7.921875 9.199218 v 12.425782 c 0 4.035156 3.273438 7.308594 7.308594 7.308594 c 3.117188 0.917968 4.90625 4.1875 3.988281 7.308593 v 8.71875 c 0 4.425781 3.585938 8.011719 8.011719 8.011719 c 4.421875 -0.003906 8.003906 -3.589844 8 -8.011719 v -13.503906 c 0 -3.242187 1.289062 -6.351563 3.585938 -8.640625 c 2.292968 -2.289062 5.40625 -3.570312 8.648437 -3.566406 l 11.3125 0.027344 c 1.886719 0.003906 3.699219 -0.742188 5.035156 -2.074219 c 1.332031 -1.332031 2.082031 -3.140625 2.082031 -5.027344 v -22.328125 c 0 -3.929688 -3.183593 -7.117188 -7.117187 -7.117188 h -28.699219 c -3.929687 0 -7.117187 3.1875 -7.117187 7.117188 z m 0 0"
         fill="#26a269"
         id="path27"
         style="fill:#9744b2;fill-opacity:1" />
    </g>
  </g>
  <g
     clip-path="url(#g)"
     id="g31">
    <g
       clip-path="url(#h)"
       id="g30">
      <path
         d="m 67.886719 21.046875 c 3.210937 0 5.808593 2.601563 5.808593 5.808594 v 6.378906 c 0 3.207031 -2.597656 5.808594 -5.808593 5.808594 c -3.207031 0 -5.808594 -2.601563 -5.808594 -5.808594 v -6.378906 c 0 -3.207031 2.601563 -5.808594 5.808594 -5.808594 z m 0 0"
         fill="#26a269"
         id="path29" />
    </g>
  </g>
  <g
     clip-path="url(#i)"
     id="g33">
    <g
       clip-path="url(#j)"
       id="g32">
      <path
         d="m 88.484375 12.285156 h 17.929687 c 2.902344 0 5.253907 2.351563 5.253907 5.253906 c 0 2.902344 -2.351563 5.253907 -5.253907 5.253907 h -17.929687 c -2.898437 0 -5.253906 -2.351563 -5.253906 -5.253907 c 0 -2.902343 2.355469 -5.253906 5.253906 -5.253906 z m 0 0"
         fill="#26a269"
         id="path31" />
    </g>
  </g>
  <g
     clip-path="url(#k)"
     id="g35">
    <g
       clip-path="url(#l)"
       id="g34">
      <path
         d="m 28.261719 16.25 h -8 v 8 c -2.207031 -4.417969 -7.582031 -6.207031 -12 -4 c -4.417969 2.210938 -6.207031 7.582031 -4 12 v 14 c 0 4.421875 -3.582031 8 -8 8 s -8 3.582031 -8 8 v 16 c 0 4.421875 3.582031 8 8 8 s 8 3.582031 8 8 v 16 c 0 4.421875 3.582031 8 8 8 h 4 c 4.417969 0 8 -3.578125 8 -8 v -30 c 0 -4.417969 -3.582031 -8 -8 -8 s -8 -3.578125 -8 -8 c 0 -4.417969 3.582031 -8 8 -8 s 8 -3.578125 8 -8 c 0 -4.417969 3.582031 -8 8 -8 s 8 -3.578125 8 -8 v -11.882812 c 0 -2.273438 1.84375 -4.117188 4.117187 -4.117188 c 2.28125 -0.136719 4.019532 -2.097656 3.882813 -4.378906 c -1.210938 -3.210938 -4.792969 -4.828125 -8 -3.621094 h -4 c -4.417969 0 -8 3.582031 -8 8 z m 0 0"
         fill="#26a269"
         id="path33"
         style="fill:#9744b2;fill-opacity:1" />
    </g>
  </g>
  <path
     d="m 56 29.871094 h 64.144531 c 4.417969 0 8 3.582031 8 8 v 28.128906 c 0 4.417969 -3.582031 8 -8 8 h -64.144531 c -4.417969 0 -8 -3.582031 -8 -8 v -28.128906 c 0 -4.417969 3.582031 -8 8 -8 z m 0 0"
     fill="url(#m)"
     id="path35" />
  <path
     d="m 68.144531 14.179688 h 52 c 4.417969 0 8 3.582031 8 8 v 35.820312 c 0 4.417969 -3.582031 8 -8 8 h -52 c -4.417969 0 -8 -3.582031 -8 -8 v -35.820312 c 0 -4.417969 3.582031 -8 8 -8 z m 0 0"
     fill="#3d3846"
     id="path36" />
  <path
     d="m 56 0 h 64.144531 c 4.417969 0 8 3.582031 8 8 v 50 c 0 4.417969 -3.582031 8 -8 8 h -64.144531 c -4.417969 0 -8 -3.582031 -8 -8 v -50 c 0 -4.417969 3.582031 -8 8 -8 z m 0 0"
     fill="#241f31"
     id="path37" />
  <path
     d="m 246.994537 786.252397 v 99.835116 c 0 32.581414 -26.424037 59.005452 -59.005451 59.005452 h -144.698358 c -37.240605 0 -67.434801 -30.194196 -67.434801 -67.434802 c -6.81592 -30.424686 -37.010116 -49.55536 -67.434802 -42.73944 h -49.176697"
     fill="none"
     stroke="url(#n)"
     stroke-width="33.7174"
     id="path38"
     transform="matrix(0.237266 0 0 0.237266 49.396542 -116.238628)" />
  <g
     fill="#ffffff"
     id="g47">
    <path
       d="m 72 108 c 0 2.210938 -1.789062 4 -4 4 s -4 -1.789062 -4 -4 s 1.789062 -4 4 -4 s 4 1.789062 4 4 z m 0 0"
       id="path39" />
    <path
       d="m 88 108 c 0 2.210938 -1.789062 4 -4 4 s -4 -1.789062 -4 -4 s 1.789062 -4 4 -4 s 4 1.789062 4 4 z m 0 0"
       id="path40" />
    <path
       d="m 104 106 c 0 2.210938 -1.789062 4 -4 4 s -4 -1.789062 -4 -4 s 1.789062 -4 4 -4 s 4 1.789062 4 4 z m 0 0"
       id="path41" />
    <path
       d="m 112 94 c 0 2.210938 -1.789062 4 -4 4 s -4 -1.789062 -4 -4 s 1.789062 -4 4 -4 s 4 1.789062 4 4 z m 0 0"
       id="path42" />
    <path
       d="m 112 80 c 0 2.210938 -1.789062 4 -4 4 s -4 -1.789062 -4 -4 s 1.789062 -4 4 -4 s 4 1.789062 4 4 z m 0 0"
       id="path43" />
    <path
       d="m 56 106 c 0 2.210938 -1.789062 4 -4 4 s -4 -1.789062 -4 -4 s 1.789062 -4 4 -4 s 4 1.789062 4 4 z m 0 0"
       id="path44" />
    <path
       d="m 48 94 c 0 2.210938 -1.789062 4 -4 4 s -4 -1.789062 -4 -4 s 1.789062 -4 4 -4 s 4 1.789062 4 4 z m 0 0"
       id="path45" />
    <path
       d="m 40 82 c 0 2.210938 -1.789062 4 -4 4 s -4 -1.789062 -4 -4 s 1.789062 -4 4 -4 s 4 1.789062 4 4 z m 0 0"
       id="path46" />
    <path
       d="m 27.984375 82 c 0 4.410156 -3.574219 7.984375 -7.984375 7.984375 s -7.984375 -3.574219 -7.984375 -7.984375 s 3.574219 -7.988281 7.984375 -7.988281 s 7.984375 3.578125 7.984375 7.988281 z m 0 0"
       id="path47" />
  </g>
  <path
     d="m 72.074219 18.089844 l 11.632812 34.910156 l 7.589844 -6.503906 l 4.933594 5.921875 c 1.285156 1.542969 3.582031 1.753906 5.125 0.464843 c 1.539062 -1.285156 1.75 -3.574218 0.464843 -5.117187 l -5 -6 l 7.253907 -6.21875 z m 0 0"
     id="path48" />
  <path
     d="m 72.074219 15.183594 l 11.632812 34.90625 l 7.589844 -6.5 l 4.933594 5.917968 c 1.285156 1.542969 3.582031 1.753907 5.125 0.46875 c 1.539062 -1.289062 1.75 -3.578124 0.464843 -5.121093 l -5 -6 l 7.253907 -6.21875 z m 0 0"
     fill="#787878"
     id="path49" />
  <path
     d="m 72.074219 15.179688 l 1.925781 5.785156 v -4.734375 z m 2.273437 6.820312 l 9.363282 28.09375 l 7.585937 -6.503906 l 4.933594 5.921875 c 1.285156 1.542969 3.582031 1.75 5.125 0.464843 c 1.539062 -1.285156 1.75 -3.578124 0.464843 -5.121093 l -5 -6 l 5.664063 -4.855469 h -4.484375 v -4.675781 l -2.425781 -1.324219 h -9.574219 v -5.222656 l -1.425781 -0.777344 z m 29.652344 10.597656 v 0.101563 l 0.074219 -0.0625 z m 0 0"
     fill="#ffffff"
     id="path50" />
  <path
     d="m 72.074219 15.183594 l 11.632812 34.90625 l 7.589844 -6.5 l 4.933594 5.917968 c 1.285156 1.542969 3.582031 1.753907 5.125 0.46875 c 0.121093 -0.105468 0.238281 -0.21875 0.34375 -0.339843 z m 0 0"
     fill="#deddda"
     id="path51" />
  <path
     d="m 92 28 h 6 v 6 h -6 z m 0 0"
     fill="#ffffff"
     id="path52" />
  <path
     d="m 98 22 h 6 v 6 h -6 z m -12 -6 h 6 v 6 h -6 z m 0 0"
     fill="url(#o)"
     id="path53" />
</svg>
