<?xml version="1.0" encoding="UTF-8" standalone="no"?>
<svg
   height="128px"
   viewBox="0 0 128 128"
   width="128px"
   version="1.1"
   id="svg28"
   sodipodi:docname="ca.desrt.dconf-editor.svg"
   inkscape:version="1.4 (e7c3feb100, 2024-10-09)"
   xmlns:inkscape="http://www.inkscape.org/namespaces/inkscape"
   xmlns:sodipodi="http://sodipodi.sourceforge.net/DTD/sodipodi-0.dtd"
   xmlns="http://www.w3.org/2000/svg"
   xmlns:svg="http://www.w3.org/2000/svg">
  <defs
     id="defs28" />
  <sodipodi:namedview
     id="namedview28"
     pagecolor="#ffffff"
     bordercolor="#000000"
     borderopacity="0.25"
     inkscape:showpageshadow="2"
     inkscape:pageopacity="0.0"
     inkscape:pagecheckerboard="0"
     inkscape:deskcolor="#d1d1d1"
     inkscape:zoom="6.40625"
     inkscape:cx="64.078049"
     inkscape:cy="64"
     inkscape:window-width="1920"
     inkscape:window-height="1011"
     inkscape:window-x="0"
     inkscape:window-y="0"
     inkscape:window-maximized="1"
     inkscape:current-layer="svg28" />
  <linearGradient
     id="a"
     gradientUnits="userSpaceOnUse"
     x1="8"
     x2="112"
     y1="63.999954"
     y2="63.999954">
    <stop
       offset="0"
       stop-color="#babdb6"
       id="stop1" />
    <stop
       offset="0.0416667"
       stop-color="#f6f5f4"
       id="stop2" />
    <stop
       offset="0.0833333"
       stop-color="#d5d3cf"
       id="stop3" />
    <stop
       offset="0.916667"
       stop-color="#deddda"
       id="stop4" />
    <stop
       offset="0.958333"
       stop-color="#f6f5f4"
       id="stop5" />
    <stop
       offset="1"
       stop-color="#babdb6"
       id="stop6" />
  </linearGradient>
  <linearGradient
     id="b"
     gradientTransform="matrix(-1 0 0 1 120 -172)"
     gradientUnits="userSpaceOnUse"
     x1="8"
     x2="112"
     y1="207"
     y2="207">
    <stop
       offset="0"
       stop-color="#9b9a95"
       id="stop7" />
    <stop
       offset="1"
       stop-color="#d1d0cc"
       id="stop8" />
  </linearGradient>
  <linearGradient
     id="c"
     gradientUnits="userSpaceOnUse"
     x1="67.334961"
     x2="67.334961"
     y1="49.515625"
     y2="12">
    <stop
       offset="0"
       stop-color="#deddda"
       id="stop9" />
    <stop
       offset="1"
       stop-color="#e7e7e5"
       id="stop10" />
  </linearGradient>
  <clipPath
     id="d">
    <path
       d="m 72 75 h 24 v 22 h -24 z m 0 0"
       id="path10" />
  </clipPath>
  <clipPath
     id="e">
    <path
       d="m 84.4375 74.242188 h -17.851562 c -6.335938 0 -11.476563 4.886718 -11.476563 10.914062 s 5.140625 10.914062 11.476563 10.914062 h 17.851562 c 6.335938 0 11.472656 -4.886718 11.472656 -10.914062 s -5.136718 -10.914062 -11.472656 -10.914062 z m 0 0"
       id="path11" />
  </clipPath>
  <path
     d="m 16 32 h 88 c 4.417969 0 8 3.582031 8 8 v 68 c 0 4.417969 -3.582031 8 -8 8 h -88 c -4.417969 0 -8 -3.582031 -8 -8 v -68 c 0 -4.417969 3.582031 -8 8 -8 z m 0 0"
     fill="url(#a)"
     id="path12" />
  <path
     d="m 16 12 h 88 c 4.417969 0 8 3.582031 8 8 v 84 c 0 4.417969 -3.582031 8 -8 8 h -88 c -4.417969 0 -8 -3.582031 -8 -8 v -84 c 0 -4.417969 3.582031 -8 8 -8 z m 0 0"
     fill="#f6f5f4"
     id="path13" />
  <path
     d="m 104 14 c 4.433594 0 8 3.566406 8 8 v 34 h -104 v -34 c 0 -4.433594 3.566406 -8 8 -8 z m 0 0"
     fill="url(#b)"
     id="path14" />
  <path
     d="m 16 12 c -4.433594 0 -8 3.566406 -8 8 v 34 h 104 v -34 c 0 -4.433594 -3.566406 -8 -8 -8 z m 0 0"
     fill="url(#c)"
     id="path15" />
  <path
     d="m 84.597656 73.347656 h -17.109375 c -6.296875 0 -11.402343 5.070313 -11.402343 11.324219 s 5.105468 11.320313 11.402343 11.320313 h 17.109375 c 6.296875 0 11.402344 -5.066407 11.402344 -11.320313 s -5.105469 -11.324219 -11.402344 -11.324219 z m 0 0"
     fill="#723387"
     id="path16"
     style="fill:#8e40a8;fill-opacity:1" />
  <path
     d="m 84.773438 71.96875 c 6.21875 0 11.226562 5.058594 11.226562 11.4375 c 0 0.21875 -0.019531 0.503906 -0.03125 0.714844 c -0.324219 -6.078125 -5.1875 -10.207032 -11.195312 -10.207032 h -17.460938 c -6.007812 0 -10.871094 4.128907 -11.195312 10.207032 c -0.011719 -0.210938 -0.03125 -0.496094 -0.03125 -0.714844 c 0 -6.378906 5.007812 -11.4375 11.226562 -11.4375 z m 0 0"
     fill="#5e2a6f"
     id="path17"
     style="fill:#632c76;fill-opacity:1" />
  <g
     clip-path="url(#d)"
     id="g19">
    <g
       clip-path="url(#e)"
       id="g18">
      <path
         d="m 72.960938 86.371094 c 0 6.027344 5.136718 10.914062 11.476562 10.914062 c 6.335938 0 11.472656 -4.886718 11.472656 -10.914062 c 0 -6.03125 -5.136718 -10.914063 -11.472656 -10.914063 c -6.339844 0 -11.476562 4.882813 -11.476562 10.914063 z m 0 0"
         fill="#deddda"
         id="path18" />
    </g>
  </g>
  <path
     d="m 95.878906 82.304688 h -22.890625 v 3.839843 h 22.890625 z m 0 0"
     fill="#deddda"
     id="path19" />
  <path
     d="m 72.988281 82.304688 c 0 6.359374 5.125 11.515624 11.445313 11.515624 c 6.324218 0 11.445312 -5.15625 11.445312 -11.515624 c 0 -6.359376 -5.121094 -11.515626 -11.445312 -11.515626 c -6.320313 0 -11.445313 5.15625 -11.445313 11.515626 z m 0 0"
     fill="#ffffff"
     id="path20" />
  <g
     fill-opacity="0.996078"
     id="g24">
    <path
       d="m 24.75 72 h 22.5 c 0.414062 0 0.75 0.335938 0.75 0.75 v 6.5 c 0 0.414062 -0.335938 0.75 -0.75 0.75 h -22.5 c -0.414062 0 -0.75 -0.335938 -0.75 -0.75 v -6.5 c 0 -0.414062 0.335938 -0.75 0.75 -0.75 z m 0 0"
       fill="#deddda"
       id="path21" />
    <path
       d="m 40 28 h 8 v 8 h -8 z m 0 0"
       fill="#77767b"
       id="path22" />
    <path
       d="m 24.75 88 h 14.5 c 0.414062 0 0.75 0.335938 0.75 0.75 v 6.5 c 0 0.414062 -0.335938 0.75 -0.75 0.75 h -14.5 c -0.414062 0 -0.75 -0.335938 -0.75 -0.75 v -6.5 c 0 -0.414062 0.335938 -0.75 0.75 -0.75 z m 0 0"
       fill="#deddda"
       id="path23" />
    <path
       d="m 68 28 h 28 v 8 h -28 z m 0 0"
       fill="#77767b"
       id="path24" />
  </g>
  <path
     d="m 60.117188 20 h 3.882812 l -8 24 h -3.882812 z m 0 0"
     fill="#c0bfbc"
     id="path25" />
  <path
     d="m 68 40 h 28 v 4 h -28 z m 0 0"
     fill="#723387"
     id="path26" />
  <path
     d="m 16 12 c -4.433594 0 -8 3.566406 -8 8 v 2 c 0 -4.433594 3.566406 -8 8 -8 h 88 c 4.433594 0 8 3.566406 8 8 v -2 c 0 -4.433594 -3.566406 -8 -8 -8 z m 0 0"
     fill="#edebe9"
     id="path27" />
  <path
     d="m 32.109375 20 h 3.78125 l -8 24 h -3.78125 z m 0 0"
     fill="#c0bfbc"
     id="path28" />
</svg>
