<?xml version="1.0" encoding="UTF-8" standalone="no"?>
<svg
   height="128px"
   viewBox="0 0 128 128"
   width="128px"
   version="1.1"
   id="svg45"
   sodipodi:docname="nl.emphisia.icon.svg"
   inkscape:version="1.4 (e7c3feb100, 2024-10-09)"
   xml:space="preserve"
   xmlns:inkscape="http://www.inkscape.org/namespaces/inkscape"
   xmlns:sodipodi="http://sodipodi.sourceforge.net/DTD/sodipodi-0.dtd"
   xmlns:xlink="http://www.w3.org/1999/xlink"
   xmlns="http://www.w3.org/2000/svg"
   xmlns:svg="http://www.w3.org/2000/svg"><defs
     id="defs45" /><sodipodi:namedview
     id="namedview45"
     pagecolor="#505050"
     bordercolor="#eeeeee"
     borderopacity="1"
     inkscape:showpageshadow="0"
     inkscape:pageopacity="0"
     inkscape:pagecheckerboard="0"
     inkscape:deskcolor="#505050"
     inkscape:zoom="6.25"
     inkscape:cx="64.08"
     inkscape:cy="64"
     inkscape:window-width="1920"
     inkscape:window-height="1011"
     inkscape:window-x="0"
     inkscape:window-y="0"
     inkscape:window-maximized="1"
     inkscape:current-layer="svg45" /><filter
     id="a"
     height="1"
     width="1"
     x="0"
     y="0"><feColorMatrix
       color-interpolation-filters="sRGB"
       values="0 0 0 0 1 0 0 0 0 1 0 0 0 0 1 0 0 0 1 0"
       id="feColorMatrix1" /></filter><linearGradient
     id="b"
     gradientTransform="matrix(0.232143 0 0 0.328947 -8.941925 264.326965)"
     gradientUnits="userSpaceOnUse"
     x1="88.595886"
     x2="536.595886"
     y1="-449.394012"
     y2="-449.394012"><stop
       offset="0"
       stop-color="#77767b"
       id="stop1" /><stop
       offset="0.0384615"
       stop-color="#c0bfbc"
       id="stop2" /><stop
       offset="0.0768555"
       stop-color="#9a9996"
       id="stop3" /><stop
       offset="0.923077"
       stop-color="#9a9996"
       id="stop4" /><stop
       offset="0.961538"
       stop-color="#c0bfbc"
       id="stop5" /><stop
       offset="1"
       stop-color="#77767b"
       id="stop6" /></linearGradient><linearGradient
     id="c"
     gradientTransform="matrix(-0.847833 0 -0 -0.856845 124.056413 -141.219415)"
     gradientUnits="userSpaceOnUse"
     x1="27.99999"
     x2="115.999992"
     y1="-276"
     y2="-276"><stop
       offset="0"
       stop-color="#c0bfbc"
       id="stop7" /><stop
       offset="0.0454545"
       stop-color="#ffffff"
       id="stop8" /><stop
       offset="0.0909091"
       stop-color="#deddda"
       id="stop9" /><stop
       offset="0.909091"
       stop-color="#deddda"
       id="stop10" /><stop
       offset="0.954545"
       stop-color="#ffffff"
       id="stop11" /><stop
       offset="1"
       stop-color="#c0bfbc"
       id="stop12" /></linearGradient><linearGradient
     id="d"
     gradientTransform="matrix(0.385152 0 0 0.409929 -1016.730813 557.493527)"
     gradientUnits="userSpaceOnUse"
     x1="2689.251953"
     x2="2918.069824"
     y1="-1106.802979"
     y2="-1106.802979"><stop
       offset="0"
       stop-color="#62a0ea"
       id="stop13" /><stop
       offset="0.0576991"
       stop-color="#afd4ff"
       id="stop14" /><stop
       offset="0.122204"
       stop-color="#62a0ea"
       id="stop15" /><stop
       offset="0.873306"
       stop-color="#62a0ea"
       id="stop16" /><stop
       offset="0.955997"
       stop-color="#c0d5ea"
       id="stop17" /><stop
       offset="1"
       stop-color="#62a0ea"
       id="stop18" /></linearGradient><mask
     id="e"><g
       filter="url(#a)"
       id="g18"><rect
         fill-opacity="0.508475"
         height="153.6"
         width="153.6"
         x="-12.8"
         y="-12.8"
         id="rect18" /></g></mask><clipPath
     id="f"><rect
       height="152"
       width="192"
       id="rect19" /></clipPath><mask
     id="g"><g
       filter="url(#a)"
       id="g20"><rect
         fill-opacity="0.505085"
         height="153.6"
         width="153.6"
         x="-12.8"
         y="-12.8"
         id="rect20" /></g></mask><clipPath
     id="h"><rect
       height="152"
       width="192"
       id="rect21" /></clipPath><linearGradient
     id="i"
     gradientUnits="userSpaceOnUse"><stop
       offset="0"
       stop-color="#fc9a91"
       id="stop21" /><stop
       offset="1"
       stop-color="#cb2b31"
       id="stop22" /></linearGradient><linearGradient
     id="j"
     gradientTransform="matrix(0.6 0.6 0.707107 -0.707107 296.623446 119.456292)"
     x1="-253.630356"
     x2="-230.060135"
     xlink:href="#i"
     y1="-56.517502"
     y2="-56.517502" /><linearGradient
     id="k"
     gradientTransform="matrix(0.6 0.6 0.707107 -0.707107 295.209261 120.870507)"
     x1="-253.630356"
     x2="-230.060135"
     xlink:href="#i"
     y1="-56.517502"
     y2="-56.517502" /><linearGradient
     id="l"
     gradientTransform="matrix(0.390307 -0.130102 0.130102 -0.390307 -2.081064 56.129952)"
     gradientUnits="userSpaceOnUse"
     x1="181.677414"
     x2="143.24614"
     y1="-139.479385"
     y2="-101.048103"><stop
       offset="0"
       stop-color="#d0bb8e"
       id="stop23" /><stop
       offset="1"
       stop-color="#ffffff"
       id="stop24" /></linearGradient><linearGradient
     id="m"
     gradientTransform="matrix(0.6 0.6 0.707107 -0.707107 295.209261 120.870476)"
     gradientUnits="userSpaceOnUse"
     x1="-230.060135"
     x2="-253.630356"
     y1="-64.517509"
     y2="-64.517509"><stop
       offset="0"
       stop-color="#c0bfbc"
       id="stop25" /><stop
       offset="0.223152"
       stop-color="#9a9996"
       id="stop26" /><stop
       offset="0.743841"
       stop-color="#d6d5d2"
       id="stop27" /><stop
       offset="1"
       stop-color="#f6f5f4"
       id="stop28" /></linearGradient><path
     d="m 19.625 16.5 h 88 c 4.417969 0 8 3.582031 8 8 v 84 c 0 4.417969 -3.582031 8 -8 8 h -88 c -4.417969 0 -8 -3.582031 -8 -8 v -84 c 0 -4.417969 3.582031 -8 8 -8 z m 0 0"
     fill="url(#b)"
     id="path28" /><path
     d="m 19.625 12.5 h 88 c 4.417969 0 8 3.582031 8 8 v 84 c 0 4.417969 -3.582031 8 -8 8 h -88 c -4.417969 0 -8 -3.582031 -8 -8 v -84 c 0 -4.417969 3.582031 -8 8 -8 z m 0 0"
     fill="#deddda"
     id="path29" /><g
     id="g49"
     transform="matrix(0.85684058,0,0,0.8568406,8.2022031,7.8119728)"><path
       d="M 21.976562,12 C 16.449219,12 12,16.460938 12,22 v 86.03125 c 0,5.54297 4.449219,10 9.976562,10 h 84.042968 c 5.53125,0 9.98047,-4.45703 9.98047,-10 V 35.945312 c 0,-6.628906 -5.35937,-12 -11.97266,-12 H 58 c -2.453125,0 -4.695312,-1.386718 -5.796875,-3.582031 L 50.699219,17.371094 C 49.042969,14.078125 45.679688,12 42,12 Z m 0,0"
       fill="#438de6"
       id="path15"
       style="fill:#954ab5;fill-opacity:1" /><path
       d="M 65.976562,36 C 63.230469,36 60.75,37.101562 58.949219,38.890625 56.675781,41.144531 53.566406,44 50.316406,44 H 21.976562 C 16.449219,44 12,48.460938 12,54 v 54.03125 c 0,5.54297 4.449219,10 9.976562,10 h 84.042968 c 5.53125,0 9.98047,-4.45703 9.98047,-10 V 46 c 0,-5.539062 -4.44922,-10 -9.98047,-10 z m 0,0"
       fill="url(#a)"
       id="path17"
       style="fill:url(#a-2)" /><path
       d="M 65.976562,32 C 63.230469,32 60.75,33.101562 58.949219,34.890625 56.675781,37.144531 53.566406,40 50.316406,40 H 21.976562 C 16.449219,40 12,44.460938 12,50 v 55.97656 c 0,5.53907 4.449219,10 9.976562,10 h 84.042968 c 5.53125,0 9.98047,-4.46093 9.98047,-10 V 42 c 0,-5.539062 -4.44922,-10 -9.98047,-10 z m 0,0"
       fill="#a4caee"
       id="path19"
       style="fill:#d099d6;fill-opacity:1" /></g><g
     mask="url(#e)"
     id="g35"><g
       clip-path="url(#f)"
       transform="matrix(1 0 0 1 -8 -16)"
       id="g34"><path
         d="m 62.050781,78.90625 c -2.101562,0 -3.820312,1.78125 -3.820312,3.964844 0,2.183594 1.71875,3.964844 3.820312,3.964844 2.105469,0 3.824219,-1.78125 3.824219,-3.964844 0,-2.183594 -1.71875,-3.964844 -3.824219,-3.964844 z m 13.375,11.894531 -7.640625,7.929688 -5.734375,-3.964844 -7.640625,7.925785 v 1.98437 c 0,1.98047 1.910156,1.98047 1.910156,1.98047 h 26.75 c 0,0 1.804688,-0.13672 1.910157,-1.98047 v -3.96484 z"
         fill="#438de6"
         id="path34"
         style="fill:#954ab5;fill-opacity:1"
         sodipodi:nodetypes="sssssccccsccccc" /></g></g><g
     mask="url(#g)"
     id="g37"><g
       clip-path="url(#h)"
       transform="matrix(1 0 0 1 -8 -16)"
       id="g36"><path
         d="m 54.410156 63.050781 c -6.285156 0 -11.464844 5.375 -11.464844 11.890625 v 31.714844 c 0 6.519531 5.179688 11.894531 11.464844 11.894531 h 30.570313 c 6.285156 0 11.464843 -5.375 11.464843 -11.894531 v -31.714844 c 0 -6.515625 -5.179687 -11.890625 -11.464843 -11.890625 z m 0 7.929688 h 30.570313 c 2.179687 0 3.820312 1.703125 3.820312 3.960937 v 31.714844 c 0 2.261719 -1.640625 3.964844 -3.820312 3.964844 h -30.570313 c -2.179687 0 -3.820312 -1.703125 -3.820312 -3.964844 v -31.714844 c 0 -2.257812 1.640625 -3.960937 3.820312 -3.960937 z m 0 0"
         fill="#438de6"
         id="path35"
         style="fill:#954ab5;fill-opacity:1" /></g></g><path
     d="m 38.871094 87.042969 l 0.003906 -0.128907 l 6.445312 -0.125 l 1.550782 -1.84375 l 8.707031 -1.800781 l 10.699219 -37.742187 l -36.585938 0.171875 l -0.058594 41.722656 z m 0 0"
     fill="#a4caee"
     id="path37"
     inkscape:label="Obscuring"
     style="fill:#d099d6;fill-opacity:1" /><path
     d="m 43.226562 71.324219 l 11.3125 11.3125 l 59.597657 -59.597657 l -11.3125 -11.3125 z m 0 0"
     fill="#ff881e"
     id="path38" /><path
     d="M 51.660156,79.859375 55.902344,84.101562 115.5,24.503906 111.25781,20.261719 Z"
     fill="#e66100"
     id="path39"
     sodipodi:nodetypes="ccccc" /><path
     d="m 46.003906 74.203125 l -4.242187 -4.242187 l 59.597656 -59.597657 l 4.242187 4.242188 z m 0 0"
     fill="#ffb367"
     id="path40" /><path
     d="m 97.410156 14.3125 l 14.140625 14.140625 l 5.65625 -5.65625 l -14.140625 -14.140625 z m 0 0"
     fill="url(#j)"
     id="path41" /><path
     d="m 117.207031 22.796875 c 3.90625 -3.90625 3.90625 -10.238281 0 -14.140625 c -3.902343 -3.90625 -10.234375 -3.90625 -14.140625 0 c -3.90625 3.902344 -3.90625 10.234375 0 14.140625 s 10.238282 3.90625 14.140625 0 z m 0 0"
     fill="url(#k)"
     id="path42" /><path
     d="m 38.882812 86.980469 l 17.070313 -2.929688 l -14.140625 -14.140625 z m 0 0"
     fill="url(#l)"
     id="path43" /><path
     d="m 38.882812 86.980469 l 7.414063 -1.273438 l -6.140625 -6.140625 z m 0 0"
     fill="#3d3846"
     id="path44" /><path
     d="m 94.582031 17.140625 l 14.140625 14.140625 l 5.65625 -5.65625 l -14.140625 -14.140625 z m 0 0"
     fill="url(#m)"
     id="path45" /></svg>
