<?xml version="1.0" encoding="UTF-8" standalone="no"?>
<svg
   height="128px"
   viewBox="0 0 128 128"
   width="128px"
   version="1.1"
   id="svg18"
   sodipodi:docname="model.svg"
   inkscape:version="1.2.2 (b0a8486541, 2022-12-01)"
   xmlns:inkscape="http://www.inkscape.org/namespaces/inkscape"
   xmlns:sodipodi="http://sodipodi.sourceforge.net/DTD/sodipodi-0.dtd"
   xmlns="http://www.w3.org/2000/svg"
   xmlns:svg="http://www.w3.org/2000/svg">
  <defs
     id="defs22" />
  <sodipodi:namedview
     id="namedview20"
     pagecolor="#ffffff"
     bordercolor="#000000"
     borderopacity="0.25"
     inkscape:showpageshadow="2"
     inkscape:pageopacity="0.0"
     inkscape:pagecheckerboard="0"
     inkscape:deskcolor="#d1d1d1"
     showgrid="false"
     inkscape:zoom="3.828125"
     inkscape:cx="22.595918"
     inkscape:cy="53.942857"
     inkscape:window-width="1536"
     inkscape:window-height="795"
     inkscape:window-x="0"
     inkscape:window-y="0"
     inkscape:window-maximized="1"
     inkscape:current-layer="g16" />
  <path
     d="m 16 27.929688 h 96 c 4.433594 0 8 3.570312 8 8 v 50.070312 l -30 30 h -74 c -4.433594 0 -8 -3.566406 -8 -8 v -72.070312 c 0 -4.429688 3.566406 -8 8 -8 z m 0 0"
     fill="#f6f5f4"
     id="path2" />
  <path
     d="M 32.668167,-309.13977 H 170.98067 c 23.65625,0 42.84375,19.17187 42.84375,42.84375 v 138.3125 c 0,23.65625 -19.1875,42.843749 -42.84375,42.843749 H 32.668167 c -23.65625,0 -42.84375,-19.187499 -42.84375,-42.843749 v -138.3125 c 0,-23.67188 19.1875,-42.84375 42.84375,-42.84375 z"
     fill="none"
     stroke="#3584e4"
     stroke-linecap="round"
     stroke-width="16"
     id="path4"
     sodipodi:nodetypes="sssssssss"
     transform="matrix(0.25,0,0,-0.25,40.543896,20.679901)"
     style="stroke:#9141ac;stroke-opacity:1" />
  <path
     d="m 120 86.125 h -22 c -4.433594 0 -8 3.570312 -8 8 v 21.875 z m 0 0"
     fill="#deddda"
     id="path6" />
  <g
     fill="none"
     id="g16">
    <path
       d="m 83.00000025 46 v 51"
       stroke="#99c1f1"
       stroke-dasharray="2 2"
       stroke-width="2"
       id="path8"
       style="stroke:#9141ac;stroke-opacity:0.4955537" />
    <path
       d="m 49.00000025 46 v 51"
       stroke="#99c1f1"
       stroke-dasharray="2 2"
       stroke-width="2"
       id="path10"
       style="stroke:#9141ac;stroke-opacity:0.4955537" />
    <path
       d="m 31.636917 -181.280396 h 140.375 c 23.09375 0 41.8125 18.71875 41.8125 41.8125 v 12.5 c 0 23.109375 -18.71875 41.828125 -41.8125 41.828125 h -140.375 c -23.09375 0 -41.8125 -18.71875 -41.8125 -41.828125 v -12.5 c 0 -23.09375 18.71875 -41.8125 41.8125 -41.8125 z m 0 0"
       stroke="#3584e4"
       stroke-dasharray="16 16"
       stroke-dashoffset="17.6"
       stroke-width="16"
       id="path12"
       transform="matrix(0.25 0 0 -0.25 40.543896 20.679901)"
       style="stroke:#9141ac;stroke-opacity:1" />
    <path
       d="M 91.941406,74.058594 C 90.4375,75.75 88.246094,76.816406 85.796875,76.816406 h -39.59375 c -2.511719,0 -4.75,-1.117187 -6.253906,-2.886719"
       stroke="#99c1f1"
       stroke-dasharray="2, 2"
       stroke-dashoffset="2.2"
       stroke-width="2"
       id="path14"
       style="stroke:#9141ac;stroke-opacity:0.4955537" />
  </g>
</svg>
