<svg width="128" height="128" viewBox="0 0 128 128" fill="none" xmlns="http://www.w3.org/2000/svg">
<mask id="mask0_1_690" style="mask-type:alpha" maskUnits="userSpaceOnUse" x="3" y="3" width="121" height="121">
<path d="M63.9102 3.69141C79.4059 3.69141 93.5309 9.55771 104.188 19.1895C116.353 29.9871 124 45.615 124 63C124 63.129 123.998 63.2579 123.997 63.3867C123.998 63.5181 124 63.6496 124 63.7812C124 96.9688 97.0977 123.871 63.9102 123.875C30.7227 123.875 3.82031 96.9688 3.82031 63.7812C3.81641 30.5938 30.7227 3.69141 63.9102 3.69141Z" fill="black"/>
</mask>
<g mask="url(#mask0_1_690)">
<path d="M63.9102 3.69141C30.7227 3.69141 3.81641 30.5938 3.82031 63.7812C3.82031 96.9688 30.7227 123.875 63.9102 123.875C97.0977 123.871 124 96.9688 124 63.7812C124 30.5977 97.0977 3.69141 63.9102 3.69141ZM63.9102 53.7539C70.6211 53.7539 76.0625 59.1953 76.0625 65.9062C76.0625 72.6211 70.6211 78.0586 63.9102 78.0625C57.1992 78.0625 51.7578 72.6211 51.7539 65.9062C51.7539 59.1953 57.1953 53.7539 63.9102 53.7539Z" fill="url(#paint0_linear_1_690)"/>
<mask id="mask1_1_690" style="mask-type:luminance" maskUnits="userSpaceOnUse" x="8" y="7" width="112" height="114">
<path d="M8 7H120V121H8V7Z" fill="white"/>
</mask>
<g mask="url(#mask1_1_690)">
<mask id="mask2_1_690" style="mask-type:luminance" maskUnits="userSpaceOnUse" x="4" y="4" width="120" height="118">
<path d="M64 4C30.8633 4 4 30.4141 4 63C4 95.5859 30.8633 122 64 122C97.1367 122 124 95.5859 124 63C124 30.4141 97.1367 4 64 4ZM64 51.1992C70.625 51.1992 76 56.4844 76 63C76 69.5156 70.625 74.8008 64 74.8008C57.3711 74.8008 52 69.5156 52 63C52 56.4844 57.3711 51.1992 64 51.1992Z" fill="white"/>
</mask>
<g mask="url(#mask2_1_690)">
<path d="M64 7.93359C94.9258 7.93359 120 32.5898 120 63V64.9688C120 95.3789 94.9258 120.035 64 120.035C33.0703 120.035 8 95.3789 8 64.9688V63C8 32.5898 33.0703 7.93359 64 7.93359Z" fill="#D5D3CF"/>
</g>
</g>
<mask id="mask3_1_690" style="mask-type:luminance" maskUnits="userSpaceOnUse" x="4" y="4" width="120" height="118">
<path d="M4 4H124V122H4V4Z" fill="white"/>
</mask>
<g mask="url(#mask3_1_690)">
<mask id="mask4_1_690" style="mask-type:luminance" maskUnits="userSpaceOnUse" x="4" y="4" width="120" height="118">
<path d="M64 4C30.8633 4 4 30.4141 4 63C4 95.5859 30.8633 122 64 122C97.1367 122 124 95.5859 124 63C124 30.4141 97.1367 4 64 4ZM64 51.1992C70.625 51.1992 76 56.4844 76 63C76 69.5156 70.625 74.8008 64 74.8008C57.3711 74.8008 52 69.5156 52 63C52 56.4844 57.3711 51.1992 64 51.1992Z" fill="white"/>
</mask>
<g mask="url(#mask4_1_690)">
<path d="M64 4C30.8633 4 4 30.4141 4 63C4 95.5859 30.8633 122 64 122C97.1367 122 124 95.5859 124 63C124 30.4141 97.1367 4 64 4ZM64 52.0312C70.1602 52.0312 75.1562 56.9414 75.1562 63C75.1562 69.0586 70.1602 73.9688 64 73.9688C57.8398 73.9688 52.8438 69.0586 52.8438 63C52.8438 56.9414 57.8398 52.0312 64 52.0312Z" fill="#F6F5F4"/>
<path d="M85.3516 62.9999C85.3516 74.2851 75.793 83.4296 64 83.4296C52.207 83.4296 42.6484 74.2851 42.6484 62.9999C42.6484 51.7148 52.207 42.5703 64 42.5703C75.793 42.5703 85.3516 51.7148 85.3516 62.9999Z" stroke="black" stroke-opacity="0.129412" stroke-width="9.21488"/>
</g>
</g>
<mask id="mask5_1_690" style="mask-type:luminance" maskUnits="userSpaceOnUse" x="64" y="36" width="60" height="50">
<path d="M64 36H124V86H64V36Z" fill="white"/>
</mask>
<g mask="url(#mask5_1_690)">
<mask id="mask6_1_690" style="mask-type:luminance" maskUnits="userSpaceOnUse" x="4" y="4" width="120" height="118">
<path d="M64 4C30.8633 4 4 30.4141 4 63C4 95.5859 30.8633 122 64 122C97.1367 122 124 95.5859 124 63C124 30.4141 97.1367 4 64 4ZM64 51.1992C70.625 51.1992 76 56.4844 76 63C76 69.5156 70.625 74.8008 64 74.8008C57.3711 74.8008 52 69.5156 52 63C52 56.4844 57.3711 51.1992 64 51.1992Z" fill="white"/>
</mask>
<g mask="url(#mask6_1_690)">
<path d="M128 36.7422L64 63L137.664 85.7617" fill="black" fill-opacity="0.05098"/>
</g>
</g>
<mask id="mask7_1_690" style="mask-type:luminance" maskUnits="userSpaceOnUse" x="4" y="59" width="61" height="46">
<path d="M4 59H65V105H4V59Z" fill="white"/>
</mask>
<g mask="url(#mask7_1_690)">
<mask id="mask8_1_690" style="mask-type:luminance" maskUnits="userSpaceOnUse" x="4" y="4" width="120" height="118">
<path d="M64 4C30.8633 4 4 30.4141 4 63C4 95.5859 30.8633 122 64 122C97.1367 122 124 95.5859 124 63C124 30.4141 97.1367 4 64 4ZM64 51.1992C70.625 51.1992 76 56.4844 76 63C76 69.5156 70.625 74.8008 64 74.8008C57.3711 74.8008 52 69.5156 52 63C52 56.4844 57.3711 51.1992 64 51.1992Z" fill="white"/>
</mask>
<g mask="url(#mask8_1_690)">
<path d="M9.11328 104.816L64.0234 63.168L-13.1211 59.9258" fill="black" fill-opacity="0.05098"/>
</g>
</g>
<mask id="mask9_1_690" style="mask-type:alpha" maskUnits="userSpaceOnUse" x="4" y="4" width="120" height="118">
<path d="M64 4C30.8633 4 4 30.4141 4 63C4 95.5859 30.8633 122 64 122C97.1367 122 124 95.5859 124 63C124 30.4141 97.1367 4 64 4ZM64 52.0312C70.1602 52.0312 75.1562 56.9414 75.1562 63C75.1562 69.0586 70.1602 73.9688 64 73.9688C57.8398 73.9688 52.8438 69.0586 52.8438 63C52.8438 56.9414 57.8398 52.0312 64 52.0312Z" fill="#F6F5F4"/>
</mask>
<g mask="url(#mask9_1_690)">
<rect x="38" y="62" width="52" height="62" fill="#241F31"/>
</g>
<path opacity="0.25" d="M63.9102 3.69141C79.4178 3.69141 93.5524 9.56695 104.212 19.2119C93.5716 9.75775 79.4698 4 64 4C30.8633 4 4 30.4141 4 63C4 95.5859 30.8633 122 64 122C97.0055 122 123.786 95.7947 123.997 63.3867C123.998 63.5181 124 63.6496 124 63.7812C124 96.9688 97.0977 123.871 63.9102 123.875C30.7227 123.875 3.82031 96.9688 3.82031 63.7812C3.81641 30.5938 30.7227 3.69141 63.9102 3.69141ZM64 52.0312C69.3848 52.0312 73.8794 55.7832 74.9258 60.7744C72.9908 56.6285 68.7869 53.7539 63.9102 53.7539C59.3172 53.7539 55.3205 56.3 53.2529 60.0566C54.5615 55.4282 58.8768 52.0312 64 52.0312Z" fill="url(#paint1_linear_1_690)"/>
<path d="M64 6.5C95.7958 6.5 121.5 31.8343 121.5 63C121.5 94.1657 95.7958 119.5 64 119.5C32.2042 119.5 6.5 94.1657 6.5 63C6.5 31.8343 32.2042 6.5 64 6.5Z" stroke="#241F31" stroke-width="5"/>
</g>
<path d="M66.6108 81.9507C67.5027 82.0847 68.4135 82.3961 68.8885 82.5414C69.8455 82.8339 71.399 83.7431 71.9475 84.1792C72.207 84.3853 72.7528 84.9254 72.9641 85.1972C73.1699 85.462 73.5631 86.0356 73.814 86.389C74.2133 86.9722 74.6835 87.841 75.0825 88.6405C75.528 89.5337 75.5586 89.7925 75.6932 90.5393L75.9878 91.8557C76.0155 92.0833 76.0385 92.9183 75.5483 93.0353C75.0584 93.1523 74.6054 92.9262 74.3918 92.5958C74.0963 92.1385 74.1371 91.4894 73.8028 90.7464C73.5422 90.1459 73.4282 89.2731 73.0121 88.6455L72.6856 88.0935C72.108 87.2042 71.506 86.4984 71.1469 86.0381C70.8307 85.6513 70.2402 85.1255 69.6804 84.7514C69.1628 84.4375 68.3259 84.0796 67.7223 83.8952C67.53 83.8326 66.7068 83.5906 66.1952 83.5225C65.5009 83.4445 65.0442 83.3347 64.3845 83.2882C63.57 83.2307 63.1792 83.1583 62.1227 83.2818C61.7224 83.3903 61.0883 83.4333 60.5176 83.6516C60.0566 83.8396 59.4155 84.1433 58.7875 84.5122C58.1116 84.8829 57.0856 85.6409 56.4052 86.2881C55.7195 87.0208 55.3766 87.414 54.9037 88.3429C54.6943 88.8025 54.2893 89.5134 54.126 90.0153C54.0144 90.5248 53.8016 91.4752 53.8375 91.9367C53.8536 92.7635 53.7813 92.9338 53.8433 93.6097C53.8456 94.2182 54.0454 94.64 54.1284 95.1378C54.1996 95.4817 54.5294 96.6715 54.7335 96.9477C55.6613 98.9466 56.9066 99.8123 58.2943 100.437C58.6854 100.636 59.9094 100.964 60.2636 101.057C60.8673 101.166 61.6619 101.239 62.4267 101.254C63.2314 101.269 64.3405 101.16 65.0135 100.913C65.7418 100.645 66.584 100.264 66.5744 100.275C66.9124 100.089 67.4281 99.7845 67.5888 99.6507C67.8993 99.4517 68.0863 99.3747 68.2703 99.1832C68.5357 98.951 68.6964 98.8173 68.8974 98.5295C69.0093 98.3673 69.1871 98.119 69.3603 97.8996C69.5465 97.5944 69.6535 97.2727 69.8354 96.8747C70.053 96.2861 70.0192 96.3144 70.0606 95.6892C70.0996 95.508 70.0564 94.8991 70.0236 94.7958C69.9255 94.2339 69.9602 93.7383 69.8316 93.1927C69.6579 92.4547 69.5135 91.9023 69.2918 91.1942C69.0833 90.397 68.471 89.6584 68.0114 89.1309C67.7267 88.8038 66.8433 88.0314 65.6178 87.5491C65.2728 87.433 64.7079 87.3014 64.3492 87.2359C63.5834 87.1559 63.4588 87.2073 62.7257 87.2609C62.4734 87.305 61.8877 87.4246 61.6724 87.5003C61.0426 87.7215 60.811 87.8621 60.1672 88.2564C59.8675 88.4303 59.6416 88.5635 59.3353 88.8507C59.0908 89.077 58.9161 89.4617 58.718 89.6872C58.4468 90.0563 58.1448 90.5487 57.9422 91.0799C57.7226 91.6081 57.6518 92.3519 57.6852 92.8304C57.6852 93.1952 57.7844 93.8629 57.8239 94.009C57.8631 94.1552 57.9618 94.6085 57.9832 94.6996C58.0046 94.7905 58.2404 95.2702 58.2728 95.3396C58.4058 95.6226 58.6604 96.0293 59.0892 96.4445C59.4056 96.7901 60.0174 97.1293 60.4753 97.2607C60.8859 97.4861 61.5785 97.5244 61.9616 97.5251C62.1502 97.5137 62.6318 97.4842 62.8831 97.4238C63.3928 97.3015 63.4869 97.2983 64.0121 97.0701C64.4835 96.8516 64.8033 96.7728 65.1316 96.5302C65.1316 96.5302 65.5823 96.177 65.7872 95.9187C65.8953 95.7823 66.0806 95.1325 66.0476 94.7299C66.0323 94.1789 66.1125 93.8663 66 93.413C65.8875 92.9596 65.6956 92.4342 65.4875 92.1104C65.2767 91.7824 64.8236 91.4628 64.3078 91.2085C64.0191 91.0658 63.3349 90.9336 63.0447 90.8993C62.4933 90.8338 62.0322 91.084 61.7522 91.3703C61.5094 91.6478 61.0295 92.2242 61.2207 92.8202C61.3937 93.3595 61.6026 93.934 62.4114 93.8914C62.9664 94.0069 63.6085 93.8392 63.8222 93.9376C64.1396 94.1178 64.2616 94.5158 64.1462 94.7933C64.0658 95.3284 63.5533 95.3925 63.0062 95.4333C62.5168 95.5152 61.2738 95.2757 61.0007 95.071C60.8175 94.9621 60.5369 94.7005 60.3393 94.5239C60.1972 94.3969 60.0363 94.1135 59.9265 93.9099C59.7916 93.6599 59.7236 93.4759 59.6888 93.313C59.6477 93.1195 59.5629 92.7502 59.5949 92.3809C59.6166 92.1318 59.6833 92.0258 59.7497 91.6616C59.8819 91.2487 60.0462 90.9344 60.3104 90.5762C60.6547 90.2268 61.0919 89.8109 61.5187 89.6176C61.8951 89.4188 62.5544 89.3456 63.151 89.3805C63.6348 89.4268 64.2073 89.4858 64.5857 89.6126C65.2335 89.8441 65.4186 89.8902 65.9503 90.2255C66.3997 90.5036 66.8517 91.0152 67.104 91.4389C67.6406 92.537 67.9484 93.7586 67.7246 95.4029C67.7062 95.6808 67.6197 95.9523 67.4465 96.3201C67.2866 96.6596 67.0061 97.0725 66.5852 97.3834C66.4156 97.5403 66.1483 97.7334 65.9308 97.8465C65.622 98.0339 65.4143 98.1314 65.0918 98.2933C64.8088 98.4263 64.4789 98.5784 64.0487 98.6979C63.5825 98.8823 63.2247 98.8899 62.6384 98.9773C62.0612 99.1221 60.4821 99.0187 59.5415 98.6039C58.8994 98.3339 58.179 97.858 57.6313 97.278C57.3271 96.9591 57.0295 96.3806 56.942 96.2622C56.5065 95.4249 56.4212 94.6374 56.3514 94.472C56.2565 94.2472 56.2093 93.7432 56.1457 93.3984C56.074 93.0118 56.1184 91.3906 56.5088 90.35C56.7288 89.9357 56.8576 89.5664 57.0065 89.3723C57.2742 88.9916 57.4035 88.7538 57.6311 88.4838C57.9743 88.0677 58.2241 87.7281 58.5583 87.4888C59.41 86.7962 60.1215 86.4309 61.0838 85.9738C62.2795 85.4868 62.6386 85.5876 63.7703 85.6056C64.2794 85.6099 65.0203 85.77 65.3845 85.8364C66.0609 85.9265 66.4484 86.0895 66.9059 86.2171C67.3951 86.3537 67.6779 86.5716 68.0793 86.8142C68.4098 87.0276 68.7986 87.3199 69.0554 87.5572C69.7125 88.039 70.0295 88.5455 70.4322 89.1675C70.5052 89.2718 70.9834 90.291 71.0596 90.5747C71.0949 90.7168 71.2032 91.1248 71.2727 91.3632C71.362 91.7415 71.4052 92.0765 71.5048 92.5032C71.594 92.9429 71.7457 93.7732 71.8115 94.5492C71.9221 95.2148 71.745 96.5735 71.6404 96.9906C71.4077 97.7683 71.0006 98.7175 70.1968 99.6316C69.8553 100.036 69.4923 100.35 69.0729 100.691C68.7521 100.958 68.4769 101.114 67.9814 101.41C67.3084 101.811 66.7963 102.068 65.853 102.437C65.4689 102.56 64.985 102.722 64.4634 102.83C63.4529 102.923 62.4146 103.013 61.2812 102.878C60.1477 102.743 59.0122 102.424 58.3415 102.218C57.9714 102.079 57.2544 101.778 56.9538 101.617C56.7582 101.517 56.1025 101.069 55.9911 100.961C55.5418 100.683 54.5361 99.737 53.8868 98.8554C53.7445 98.583 53.2329 97.7656 53.122 97.4075C52.827 96.8019 52.6214 96.0693 52.5006 95.7563C52.3731 95.0259 52.1578 94.5554 52.0738 93.8221C52.0835 93.6495 52.0391 93.2434 52 93.0186C52.0571 92.5167 51.9808 92.0436 52.0804 91.4973C52.1679 91.0362 52.2838 90.8437 52.3113 90.427C52.3382 90.2487 52.5677 89.7124 52.6288 89.4738C52.8139 89.0808 52.86 88.757 53.1017 88.3179C53.4499 87.6335 53.8139 86.8461 54.3733 86.1583C54.533 85.9451 54.986 85.4335 55.1404 85.2562C55.5054 84.8914 55.7195 84.8338 56.1334 84.4677C56.1765 84.4405 56.4498 84.1289 56.736 84.0217C57.2104 83.6552 57.6203 83.5208 58.0718 83.1875C58.9766 82.7368 59.3064 82.5847 60.2046 82.211C60.7236 82.0259 61.4474 81.9234 61.708 81.8223C62.2039 81.7916 62.7071 81.6334 63.2287 81.6649C63.8143 81.6594 64.4044 81.7011 64.9928 81.7546C65.3909 81.7791 65.9086 81.7984 66.6108 81.9507Z" fill="#CF3311"/>
<defs>
<linearGradient id="paint0_linear_1_690" x1="37.001" y1="121.847" x2="123.273" y2="121.847" gradientUnits="userSpaceOnUse">
<stop/>
<stop offset="0.369815"/>
<stop offset="0.788404"/>
<stop offset="1" stop-color="#241F31"/>
</linearGradient>
<linearGradient id="paint1_linear_1_690" x1="56.9647" y1="121.847" x2="195.144" y2="121.847" gradientUnits="userSpaceOnUse">
<stop/>
<stop offset="0.369815"/>
<stop offset="0.788404"/>
<stop offset="1" stop-color="#241F31"/>
</linearGradient>
</defs>
</svg>
