<svg width="128" height="128" viewBox="0 0 128 128" fill="none" xmlns="http://www.w3.org/2000/svg">
<path d="M12 16C12 13.7909 13.7909 12 16 12H112C114.209 12 116 13.7909 116 16V110C116 113.314 113.314 116 110 116H24C17.3726 116 12 110.627 12 104V16Z" fill="#5E5C64"/>
<path d="M12 16C12 13.7909 13.7909 12 16 12H112C114.209 12 116 13.7909 116 16V106C116 109.314 113.314 112 110 112H24C17.3726 112 12 106.627 12 100V16Z" fill="#3D3846"/>
<g clip-path="url(#clip0_8_294)">
<path d="M27.4142 99.4142L22.5858 94.5858C22.2107 94.2107 22 93.702 22 93.1716V20C22 18.8954 22.8954 18 24 18H104C105.105 18 106 18.8954 106 20V98C106 99.1046 105.105 100 104 100H28.8284C28.298 100 27.7893 99.7893 27.4142 99.4142Z" fill="white"/>
<rect x="89" y="94" width="15" height="3" fill="black"/>
<rect x="50" y="94" width="15" height="3" fill="black"/>
<rect x="67" y="94" width="20" height="3" fill="black"/>
<rect width="84" height="57" transform="translate(22 33)" fill="#26A269"/>
</g>
<path d="M63.6799 107.733L59.0609 103.884C58.7017 103.585 58.9134 103 59.381 103H68.619C69.0866 103 69.2983 103.585 68.9391 103.884L64.3201 107.733C64.1347 107.888 63.8653 107.888 63.6799 107.733Z" fill="black" stroke="black"/>
<defs>
<clipPath id="clip0_8_294">
<rect width="84" height="81" fill="white" transform="translate(22 18)"/>
</clipPath>
</defs>
</svg>
