<svg width="128" height="128" viewBox="0 0 128 128" fill="none" xmlns="http://www.w3.org/2000/svg">
<g clip-path="url(#clip0_11_15)">
<path d="M22 101H104V114C104 115.105 103.105 116 102 116H24C22.8954 116 22 115.105 22 114V101Z" fill="#C0BFBC"/>
<path d="M22 101H104V114C104 115.105 103.105 116 102 116H24C22.8954 116 22 115.105 22 114V101Z" fill="url(#paint0_linear_11_15)" fill-opacity="0.2"/>
<path d="M22 101H104V110C104 111.105 103.105 112 102 112H24C22.8954 112 22 111.105 22 110V101Z" fill="#9A9996"/>
<g clip-path="url(#clip1_11_15)">
<rect width="62" height="2" transform="translate(32 113)" fill="#241F31"/>
<rect x="33" y="99" width="60" height="15" fill="#FFA348"/>
<rect x="35" y="112" width="1.5" height="1.75" fill="black"/>
<rect x="38.6333" y="112" width="1.5" height="1.75" fill="black"/>
<rect x="42.2667" y="112" width="1.5" height="1.75" fill="black"/>
<rect x="45.9" y="112" width="1.5" height="1.75" fill="black"/>
<rect x="49.5333" y="112" width="1.5" height="1.75" fill="black"/>
<rect x="53.1666" y="112" width="1.5" height="1.75" fill="black"/>
<rect x="56.8" y="112" width="1.5" height="1.75" fill="black"/>
<rect x="60.4333" y="112" width="1.5" height="1.75" fill="black"/>
<rect x="64.0667" y="112" width="1.5" height="1.75" fill="black"/>
<rect x="67.7" y="112" width="1.5" height="1.75" fill="black"/>
<rect x="71.3334" y="112" width="1.5" height="1.75" fill="black"/>
<rect x="74.9667" y="112" width="1.5" height="1.75" fill="black"/>
<rect x="78.6" y="112" width="1.5" height="1.75" fill="black"/>
<rect x="82.2334" y="112" width="1.5" height="1.75" fill="black"/>
<rect x="85.8667" y="112" width="1.5" height="1.75" fill="black"/>
<rect x="89.5" y="112" width="1.5" height="1.75" fill="black"/>
</g>
<rect x="20" y="28" width="88" height="51" rx="2" fill="#C0BFBC"/>
<rect x="20" y="28" width="88" height="51" rx="2" fill="url(#paint1_linear_11_15)" fill-opacity="0.2"/>
<rect x="20" y="28" width="88" height="47" rx="2" fill="#9A9996"/>
<rect x="22" y="28" width="82" height="83" rx="2" fill="#9A9996"/>
<rect width="92" height="17" transform="translate(18 33.5)" fill="#77767B"/>
<rect x="19" y="34.5" width="90" height="2" fill="#9A9996"/>
<rect x="19" y="37.75" width="90" height="2" fill="#9A9996"/>
<rect x="19" y="41" width="90" height="2" fill="#9A9996"/>
<rect x="19" y="44.25" width="90" height="2" fill="#9A9996"/>
<rect x="19" y="47.5" width="90" height="2" fill="#9A9996"/>
<rect x="31" y="32" width="65" height="20" rx="10" fill="#9A9996"/>
<rect x="41" y="39" width="45" height="5" fill="#77767B"/>
<path d="M31 55H96V98C96 99.1046 95.1046 100 94 100H33C31.8954 100 31 99.1046 31 98V55Z" fill="#2EC27E"/>
<path d="M63 110L57 104H69L63 110Z" fill="#77767B"/>
</g>
<defs>
<linearGradient id="paint0_linear_11_15" x1="104" y1="108.5" x2="22" y2="108.5" gradientUnits="userSpaceOnUse">
<stop offset="0.05" stop-color="white"/>
<stop offset="0.1" stop-color="white" stop-opacity="0"/>
<stop offset="0.9" stop-color="white" stop-opacity="0"/>
<stop offset="0.95" stop-color="white"/>
</linearGradient>
<linearGradient id="paint1_linear_11_15" x1="108" y1="53.5" x2="20" y2="53.5" gradientUnits="userSpaceOnUse">
<stop offset="0.05" stop-color="white"/>
<stop offset="0.1" stop-color="white" stop-opacity="0"/>
<stop offset="0.9" stop-color="white" stop-opacity="0"/>
<stop offset="0.95" stop-color="white"/>
</linearGradient>
<clipPath id="clip0_11_15">
<rect width="88" height="88" fill="white" transform="translate(20 28)"/>
</clipPath>
<clipPath id="clip1_11_15">
<rect width="62" height="2" fill="white" transform="translate(32 113)"/>
</clipPath>
</defs>
</svg>
