<svg width="128" height="128" viewBox="0 0 128 128" fill="none" xmlns="http://www.w3.org/2000/svg">
<path d="M12 41H116V92C116 94.2091 114.209 96 112 96H16C13.7909 96 12 94.2091 12 92V41Z" fill="#241F31"/>
<g clip-path="url(#clip0_11_28)">
<rect width="96" height="2" transform="translate(15 92.5)" fill="#241F31"/>
<rect x="16" y="78.5" width="94" height="15" fill="#FFA348"/>
<rect x="18" y="91.5" width="1.5" height="1.75" fill="black"/>
<rect x="23.9" y="91.5" width="1.5" height="1.75" fill="black"/>
<rect x="29.8" y="91.5" width="1.5" height="1.75" fill="black"/>
<rect x="35.7" y="91.5" width="1.5" height="1.75" fill="black"/>
<rect x="41.6" y="91.5" width="1.5" height="1.75" fill="black"/>
<rect x="47.5" y="91.5" width="1.5" height="1.75" fill="black"/>
<rect x="53.4" y="91.5" width="1.5" height="1.75" fill="black"/>
<rect x="59.3" y="91.5" width="1.5" height="1.75" fill="black"/>
<rect x="65.2" y="91.5" width="1.5" height="1.75" fill="black"/>
<rect x="71.1" y="91.5" width="1.5" height="1.75" fill="black"/>
<rect x="77" y="91.5" width="1.5" height="1.75" fill="black"/>
<rect x="82.9" y="91.5" width="1.5" height="1.75" fill="black"/>
<rect x="88.8" y="91.5" width="1.5" height="1.75" fill="black"/>
<rect x="94.7" y="91.5" width="1.5" height="1.75" fill="black"/>
<rect x="100.6" y="91.5" width="1.5" height="1.75" fill="black"/>
<rect x="106.5" y="91.5" width="1.5" height="1.75" fill="black"/>
</g>
<path d="M12 41H116V86C116 88.2091 114.209 90 112 90H16C13.7909 90 12 88.2091 12 86V41Z" fill="#3D3846"/>
<rect x="8" y="31" width="112" height="11" rx="2" fill="#241F31"/>
<rect x="8" y="31" width="112" height="7" rx="2" fill="#3D3846"/>
<rect width="104" height="5" transform="translate(12 38)" fill="#3D3846"/>
<ellipse cx="63.5" cy="44" rx="44.5" ry="10" fill="#3D3846"/>
<ellipse cx="63.5" cy="44" rx="44.5" ry="10" fill="url(#paint0_linear_11_28)"/>
<rect width="93" height="9" transform="translate(17 42)" fill="#3D3846"/>
<rect x="16.5" y="45.5" width="95" height="40" rx="2.5" fill="#2EC27E"/>
<rect x="16.5" y="45.5" width="95" height="40" rx="2.5" stroke="#241F31"/>
<defs>
<linearGradient id="paint0_linear_11_28" x1="63.5" y1="34" x2="63.5" y2="44" gradientUnits="userSpaceOnUse">
<stop stop-color="#241F31"/>
<stop offset="1" stop-color="#241F31" stop-opacity="0"/>
</linearGradient>
<clipPath id="clip0_11_28">
<rect width="96" height="2" fill="white" transform="translate(15 92.5)"/>
</clipPath>
</defs>
</svg>
