<svg width="128" height="128" viewBox="0 0 128 128" fill="none" xmlns="http://www.w3.org/2000/svg">
<rect x="8" y="20" width="112" height="88" rx="4" fill="#353045"/>
<rect x="8" y="20" width="112" height="88" rx="4" fill="url(#paint0_linear_8_637)" fill-opacity="0.2"/>
<path d="M8 22C8 20.8954 8.89543 20 10 20H118C119.105 20 120 20.8954 120 22V98C120 101.314 117.314 104 114 104H14C10.6863 104 8 101.314 8 98V22Z" fill="#24231F"/>
<path d="M8 22C8 20.8954 8.89543 20 10 20H118C119.105 20 120 20.8954 120 22V98C120 101.314 117.314 104 114 104H14C10.6863 104 8 101.314 8 98V22Z" fill="url(#paint1_linear_8_637)" fill-opacity="0.2"/>
<g clip-path="url(#clip0_8_637)">
<rect width="74" height="70" transform="translate(27 20)" fill="black"/>
<rect width="74" height="54" transform="translate(27 20)" fill="#F6F5F4"/>
<rect width="74" height="16" transform="translate(27 74)" fill="black"/>
<rect x="47" y="77" width="34" height="10" fill="white"/>
</g>
<defs>
<linearGradient id="paint0_linear_8_637" x1="120" y1="64" x2="8" y2="64" gradientUnits="userSpaceOnUse">
<stop offset="0.05" stop-color="white"/>
<stop offset="0.1" stop-color="white" stop-opacity="0"/>
<stop offset="0.9" stop-color="white" stop-opacity="0"/>
<stop offset="0.95" stop-color="white"/>
</linearGradient>
<linearGradient id="paint1_linear_8_637" x1="120" y1="62" x2="8" y2="62" gradientUnits="userSpaceOnUse">
<stop offset="0.05" stop-color="white"/>
<stop offset="0.1" stop-color="white" stop-opacity="0"/>
<stop offset="0.9" stop-color="white" stop-opacity="0"/>
<stop offset="0.95" stop-color="white"/>
</linearGradient>
<clipPath id="clip0_8_637">
<rect width="74" height="70" fill="white" transform="translate(27 20)"/>
</clipPath>
</defs>
</svg>
