<svg width="128" height="128" viewBox="0 0 128 128" fill="none" xmlns="http://www.w3.org/2000/svg">
<g clip-path="url(#clip0_8_360)">
<path d="M30 101H98V114C98 115.105 97.1046 116 96 116H32C30.8954 116 30 115.105 30 114V101Z" fill="#C0BFBC"/>
<path d="M30 101H98V114C98 115.105 97.1046 116 96 116H32C30.8954 116 30 115.105 30 114V101Z" fill="url(#paint0_linear_8_360)" fill-opacity="0.2"/>
<path d="M30 101H98V110C98 111.105 97.1046 112 96 112H32C30.8954 112 30 111.105 30 110V101Z" fill="#9A9996"/>
<g clip-path="url(#clip1_8_360)">
<rect width="62" height="2" transform="translate(33 113)" fill="#241F31"/>
<rect x="34" y="99" width="60" height="15" fill="#FFA348"/>
<rect x="36" y="112" width="1.5" height="1.75" fill="black"/>
<rect x="39.6334" y="112" width="1.5" height="1.75" fill="black"/>
<rect x="43.2667" y="112" width="1.5" height="1.75" fill="black"/>
<rect x="46.9" y="112" width="1.5" height="1.75" fill="black"/>
<rect x="50.5333" y="112" width="1.5" height="1.75" fill="black"/>
<rect x="54.1667" y="112" width="1.5" height="1.75" fill="black"/>
<rect x="57.8" y="112" width="1.5" height="1.75" fill="black"/>
<rect x="61.4333" y="112" width="1.5" height="1.75" fill="black"/>
<rect x="65.0667" y="112" width="1.5" height="1.75" fill="black"/>
<rect x="68.7" y="112" width="1.5" height="1.75" fill="black"/>
<rect x="72.3333" y="112" width="1.5" height="1.75" fill="black"/>
<rect x="75.9667" y="112" width="1.5" height="1.75" fill="black"/>
<rect x="79.6" y="112" width="1.5" height="1.75" fill="black"/>
<rect x="83.2333" y="112" width="1.5" height="1.75" fill="black"/>
<rect x="86.8667" y="112" width="1.5" height="1.75" fill="black"/>
<rect x="90.5" y="112" width="1.5" height="1.75" fill="black"/>
</g>
<rect x="20" y="12" width="88" height="89" rx="2" fill="#C0BFBC"/>
<rect x="20" y="12" width="88" height="89" rx="2" fill="url(#paint1_linear_8_360)" fill-opacity="0.2"/>
<rect x="20" y="12" width="88" height="85" rx="2" fill="#9A9996"/>
<rect x="30" y="12" width="68" height="100" rx="2" fill="#9A9996"/>
<rect width="20" height="100" transform="translate(35 12)" fill="#77767B"/>
<rect x="36" y="13" width="18" height="2" fill="#9A9996"/>
<rect x="36" y="17.7895" width="18" height="2" fill="#9A9996"/>
<rect x="36" y="22.5789" width="18" height="2" fill="#9A9996"/>
<rect x="36" y="27.3684" width="18" height="2" fill="#9A9996"/>
<rect x="36" y="32.1579" width="18" height="2" fill="#9A9996"/>
<rect x="36" y="36.9474" width="18" height="2" fill="#9A9996"/>
<rect x="36" y="41.7368" width="18" height="2" fill="#9A9996"/>
<rect x="36" y="46.5263" width="18" height="2" fill="#9A9996"/>
<rect x="36" y="51.3158" width="18" height="2" fill="#9A9996"/>
<rect x="36" y="56.1053" width="18" height="2" fill="#9A9996"/>
<rect x="36" y="60.8947" width="18" height="2" fill="#9A9996"/>
<rect x="36" y="65.6842" width="18" height="2" fill="#9A9996"/>
<rect x="36" y="70.4737" width="18" height="2" fill="#9A9996"/>
<rect x="36" y="75.2632" width="18" height="2" fill="#9A9996"/>
<rect x="36" y="80.0526" width="18" height="2" fill="#9A9996"/>
<rect x="36" y="84.8421" width="18" height="2" fill="#9A9996"/>
<rect x="36" y="89.6316" width="18" height="2" fill="#9A9996"/>
<rect x="36" y="94.4211" width="18" height="2" fill="#9A9996"/>
<rect x="36" y="99.2105" width="18" height="2" fill="#9A9996"/>
<rect x="36" y="104" width="18" height="7" fill="#9A9996"/>
<path d="M58 12H96V70C96 71.1046 95.1046 72 94 72H60C58.8954 72 58 71.1046 58 70V12Z" fill="white"/>
<path d="M64 83L60 77H68L64 83Z" fill="#C0BFBC"/>
</g>
<defs>
<linearGradient id="paint0_linear_8_360" x1="98" y1="108.5" x2="30" y2="108.5" gradientUnits="userSpaceOnUse">
<stop offset="0.05" stop-color="white"/>
<stop offset="0.1" stop-color="white" stop-opacity="0"/>
<stop offset="0.9" stop-color="white" stop-opacity="0"/>
<stop offset="0.95" stop-color="white"/>
</linearGradient>
<linearGradient id="paint1_linear_8_360" x1="108" y1="56.5" x2="20" y2="56.5" gradientUnits="userSpaceOnUse">
<stop offset="0.05" stop-color="white"/>
<stop offset="0.1" stop-color="white" stop-opacity="0"/>
<stop offset="0.9" stop-color="white" stop-opacity="0"/>
<stop offset="0.95" stop-color="white"/>
</linearGradient>
<clipPath id="clip0_8_360">
<rect width="88" height="104" fill="white" transform="translate(20 12)"/>
</clipPath>
<clipPath id="clip1_8_360">
<rect width="62" height="2" fill="white" transform="translate(33 113)"/>
</clipPath>
</defs>
</svg>
