<svg width="128" height="128" viewBox="0 0 128 128" fill="none" xmlns="http://www.w3.org/2000/svg">
<g clip-path="url(#clip0_1_1112)">
<path d="M63.9102 3.69141C30.7227 3.69141 3.81641 30.5938 3.82031 63.7812C3.82031 96.9688 30.7227 123.875 63.9102 123.875C97.0977 123.871 124 96.9688 124 63.7812C124 30.5977 97.0977 3.69141 63.9102 3.69141ZM63.9102 53.7539C70.6211 53.7539 76.0625 59.1953 76.0625 65.9062C76.0625 72.6211 70.6211 78.0586 63.9102 78.0625C57.1992 78.0625 51.7578 72.6211 51.7539 65.9062C51.7539 59.1953 57.1953 53.7539 63.9102 53.7539Z" fill="url(#paint0_linear_1_1112)"/>
<mask id="mask0_1_1112" style="mask-type:luminance" maskUnits="userSpaceOnUse" x="8" y="7" width="112" height="114">
<path d="M8 7H120V121H8V7Z" fill="white"/>
</mask>
<g mask="url(#mask0_1_1112)">
<mask id="mask1_1_1112" style="mask-type:luminance" maskUnits="userSpaceOnUse" x="4" y="4" width="120" height="118">
<path d="M64 4C30.8633 4 4 30.4141 4 63C4 95.5859 30.8633 122 64 122C97.1367 122 124 95.5859 124 63C124 30.4141 97.1367 4 64 4ZM64 51.1992C70.625 51.1992 76 56.4844 76 63C76 69.5156 70.625 74.8008 64 74.8008C57.3711 74.8008 52 69.5156 52 63C52 56.4844 57.3711 51.1992 64 51.1992Z" fill="white"/>
</mask>
<g mask="url(#mask1_1_1112)">
<path d="M64 7.93359C94.9258 7.93359 120 32.5898 120 63V64.9688C120 95.3789 94.9258 120.035 64 120.035C33.0703 120.035 8 95.3789 8 64.9688V63C8 32.5898 33.0703 7.93359 64 7.93359Z" fill="#D5D3CF"/>
</g>
</g>
<mask id="mask2_1_1112" style="mask-type:luminance" maskUnits="userSpaceOnUse" x="4" y="4" width="120" height="118">
<path d="M4 4H124V122H4V4Z" fill="white"/>
</mask>
<g mask="url(#mask2_1_1112)">
<mask id="mask3_1_1112" style="mask-type:luminance" maskUnits="userSpaceOnUse" x="4" y="4" width="120" height="118">
<path d="M64 4C30.8633 4 4 30.4141 4 63C4 95.5859 30.8633 122 64 122C97.1367 122 124 95.5859 124 63C124 30.4141 97.1367 4 64 4ZM64 51.1992C70.625 51.1992 76 56.4844 76 63C76 69.5156 70.625 74.8008 64 74.8008C57.3711 74.8008 52 69.5156 52 63C52 56.4844 57.3711 51.1992 64 51.1992Z" fill="white"/>
</mask>
<g mask="url(#mask3_1_1112)">
<path d="M64 4C30.8633 4 4 30.4141 4 63C4 95.5859 30.8633 122 64 122C97.1367 122 124 95.5859 124 63C124 30.4141 97.1367 4 64 4ZM64 52.0312C70.1602 52.0312 75.1562 56.9414 75.1562 63C75.1562 69.0586 70.1602 73.9688 64 73.9688C57.8398 73.9688 52.8438 69.0586 52.8438 63C52.8438 56.9414 57.8398 52.0312 64 52.0312Z" fill="#F6F5F4"/>
<path d="M85.3516 62.9999C85.3516 74.2851 75.793 83.4296 64 83.4296C52.207 83.4296 42.6484 74.2851 42.6484 62.9999C42.6484 51.7148 52.207 42.5703 64 42.5703C75.793 42.5703 85.3516 51.7148 85.3516 62.9999Z" stroke="black" stroke-opacity="0.129412" stroke-width="9.21488"/>
</g>
</g>
<mask id="mask4_1_1112" style="mask-type:luminance" maskUnits="userSpaceOnUse" x="64" y="36" width="60" height="50">
<path d="M64 36H124V86H64V36Z" fill="white"/>
</mask>
<g mask="url(#mask4_1_1112)">
<mask id="mask5_1_1112" style="mask-type:luminance" maskUnits="userSpaceOnUse" x="4" y="4" width="120" height="118">
<path d="M64 4C30.8633 4 4 30.4141 4 63C4 95.5859 30.8633 122 64 122C97.1367 122 124 95.5859 124 63C124 30.4141 97.1367 4 64 4ZM64 51.1992C70.625 51.1992 76 56.4844 76 63C76 69.5156 70.625 74.8008 64 74.8008C57.3711 74.8008 52 69.5156 52 63C52 56.4844 57.3711 51.1992 64 51.1992Z" fill="white"/>
</mask>
<g mask="url(#mask5_1_1112)">
<path d="M128 36.7422L64 63L137.664 85.7617" fill="black" fill-opacity="0.05098"/>
</g>
</g>
<mask id="mask6_1_1112" style="mask-type:luminance" maskUnits="userSpaceOnUse" x="4" y="59" width="61" height="46">
<path d="M4 59H65V105H4V59Z" fill="white"/>
</mask>
<g mask="url(#mask6_1_1112)">
<mask id="mask7_1_1112" style="mask-type:luminance" maskUnits="userSpaceOnUse" x="4" y="4" width="120" height="118">
<path d="M64 4C30.8633 4 4 30.4141 4 63C4 95.5859 30.8633 122 64 122C97.1367 122 124 95.5859 124 63C124 30.4141 97.1367 4 64 4ZM64 51.1992C70.625 51.1992 76 56.4844 76 63C76 69.5156 70.625 74.8008 64 74.8008C57.3711 74.8008 52 69.5156 52 63C52 56.4844 57.3711 51.1992 64 51.1992Z" fill="white"/>
</mask>
<g mask="url(#mask7_1_1112)">
<path d="M9.11328 104.816L64.0234 63.168L-13.1211 59.9258" fill="black" fill-opacity="0.05098"/>
</g>
</g>
<mask id="mask8_1_1112" style="mask-type:alpha" maskUnits="userSpaceOnUse" x="4" y="4" width="121" height="121">
<path d="M64.0898 4C79.5855 4 93.7106 9.8663 104.367 19.498C116.533 30.2957 124.18 45.9235 124.18 63.3086C124.18 63.4376 124.178 63.5665 124.177 63.6953C124.178 63.8267 124.18 63.9582 124.18 64.0898C124.18 97.2773 97.2773 124.18 64.0898 124.184C30.9023 124.184 4 97.2773 4 64.0898C3.99609 30.9023 30.9023 4 64.0898 4Z" fill="black"/>
</mask>
<g mask="url(#mask8_1_1112)">
<mask id="mask9_1_1112" style="mask-type:alpha" maskUnits="userSpaceOnUse" x="12" y="12" width="98" height="102">
<path d="M64 12.0273C83.1774 12.0273 100.044 22.2023 109.058 37.4199L105.496 43.4473C98.0808 28.4102 82.2869 18.0273 64 18.0273C38.5949 18.0273 18 38.0657 18 62.7842L18.0039 63.3623C18.3172 87.429 38.1535 106.918 62.8125 107.526L64 107.541C80.0558 107.541 94.1882 99.5358 102.417 87.4053L107.595 90.4648C98.2909 104.389 82.1861 113.541 64 113.541C35.4374 113.541 12.0002 90.9701 12 62.7842C12 34.5981 35.4372 12.0273 64 12.0273ZM64 21C81.7105 21 97.062 31.5104 103.616 46.6289L99.6504 53.3398C95.3116 38.1492 80.995 27 64 27C43.5655 27 27 43.1177 27 63C27 82.8822 43.5655 99 64 99C76.8643 99 88.1924 92.6104 94.8223 82.917L100.002 85.9775C92.2966 97.4639 78.9949 105 64 105C40.4078 105 21 86.3499 21 63C21 39.6501 40.4078 21 64 21ZM64 30C80.5227 30 94.5577 41.5352 97.4521 57.0596L91.7305 66.7432C91.9065 65.5196 92 64.2702 92 63C92 48.0883 79.464 36 64 36C48.536 36 36 48.0883 36 63C36 77.9117 48.536 90 64 90C73.5606 90 82 85.3779 87.0518 78.3262L92.2393 81.3916C86.0999 90.2431 75.6711 96 64 96C45.4299 96 30 81.4292 30 63C30 44.5708 45.4299 30 64 30Z" fill="#E01B24"/>
</mask>
<g mask="url(#mask9_1_1112)">
<path d="M64 33C81.0171 33 95 46.3296 95 63C95 79.6704 81.0171 93 64 93C46.9829 93 33 79.6704 33 63C33 46.3296 46.9829 33 64 33Z" stroke="#E01B24" stroke-width="6"/>
<path d="M64 24C86.0134 24 104 41.3839 104 63C104 84.6161 86.0134 102 64 102C41.9866 102 24 84.6161 24 63C24 41.3839 41.9866 24 64 24Z" stroke="#E01B24" stroke-width="6"/>
<path d="M64 15.027C90.9839 15.027 113 36.3316 113 62.7839C113 89.2361 90.9839 110.541 64 110.541C37.0161 110.541 15 89.2361 15 62.7839C15 36.3316 37.0161 15.027 64 15.027Z" stroke="#E01B24" stroke-width="6"/>
</g>
<path d="M89.5 80L117.5 33.5" stroke="#E01B24" stroke-width="6"/>
<path d="M97.5 84.5L123.5 40.5" stroke="#E01B24" stroke-width="6"/>
<path d="M105 89L132.5 42.5" stroke="#E01B24" stroke-width="6"/>
</g>
</g>
<defs>
<linearGradient id="paint0_linear_1_1112" x1="37.001" y1="121.847" x2="123.273" y2="121.847" gradientUnits="userSpaceOnUse">
<stop stop-color="#DEDDDA"/>
<stop offset="0.369815" stop-color="#DEDDDA"/>
<stop offset="0.788404" stop-color="#DEDDDA"/>
<stop offset="1" stop-color="#F6F5F4"/>
</linearGradient>
<clipPath id="clip0_1_1112">
<rect width="128" height="128" fill="white"/>
</clipPath>
</defs>
</svg>
