<svg width="128" height="128" viewBox="0 0 128 128" fill="none" xmlns="http://www.w3.org/2000/svg">
<path d="M64 8C76.7762 8 91.7518 10.4988 104.6 14.4846C106.643 15.1183 108 17.0286 108 19.1675V115C108 117.761 105.761 120 103 120H25C22.2386 120 20 117.761 20 115V19.1675C20 17.0286 21.3567 15.1183 23.3995 14.4846C36.2482 10.4988 51.2238 8 64 8Z" fill="#3D3846"/>
<path d="M64 8C76.7762 8 91.7518 10.4988 104.6 14.4846C106.643 15.1183 108 17.0286 108 19.1675V115C108 117.761 105.761 120 103 120H25C22.2386 120 20 117.761 20 115V19.1675C20 17.0286 21.3567 15.1183 23.3995 14.4846C36.2482 10.4988 51.2238 8 64 8Z" fill="url(#paint0_linear_8_672)" fill-opacity="0.2"/>
<path d="M64 8C76.7762 8 91.7518 10.4988 104.6 14.4846C106.643 15.1183 108 17.0286 108 19.1675V111C108 113.761 105.761 116 103 116H25C22.2386 116 20 113.761 20 111V19.1675C20 17.0286 21.3567 15.1183 23.3995 14.4846C36.2482 10.4988 51.2238 8 64 8Z" fill="#241F31"/>
<path d="M64 111L57 105H71L64 111Z" fill="black"/>
<path d="M64 15C75.0257 15 87.9992 17.2795 98.9885 20.8912C100.198 21.2888 101 22.427 101 23.7003V96C101 97.6569 99.6569 99 98 99H30C28.3431 99 27 97.6569 27 96V23.7003C27 22.427 27.8019 21.2888 29.0115 20.8912C40.0008 17.2795 52.9743 15 64 15Z" fill="#26A269"/>
<path d="M27 90.4091H101V96C101 97.6568 99.6569 99 98 99H30C28.3431 99 27 97.6568 27 96V90.4091Z" fill="white"/>
<rect x="44.0769" y="93.2727" width="18.9744" height="2.86364" fill="black"/>
<rect x="64.9487" y="93.2727" width="18.9744" height="2.86364" fill="black"/>
<path d="M64 15C75.0257 15 87.9992 17.2795 98.9885 20.8912C100.198 21.2888 101 22.427 101 23.7003V34.5682H27V23.7003C27 22.427 27.8019 21.2888 29.0115 20.8912C40.0008 17.2795 52.9743 15 64 15Z" fill="#1A5FB4"/>
<defs>
<linearGradient id="paint0_linear_8_672" x1="108" y1="64" x2="20" y2="64" gradientUnits="userSpaceOnUse">
<stop offset="0.05" stop-color="white"/>
<stop offset="0.1" stop-color="white" stop-opacity="0"/>
<stop offset="0.9" stop-color="white" stop-opacity="0"/>
<stop offset="0.95" stop-color="white"/>
</linearGradient>
</defs>
</svg>
