<svg width="12" height="12" viewBox="0 0 12 12" fill="none" xmlns="http://www.w3.org/2000/svg">
<path d="M4.41361e-06 7.79981V4.2002C4.41361e-06 3.65665 -0.00106931 3.18836 0.0302779 2.80469C0.0625888 2.40943 0.134401 2.016 0.327153 1.6377C0.614727 1.07348 1.07348 0.614727 1.6377 0.327153C2.016 0.134401 2.40943 0.0625888 2.80469 0.0302779C3.18836 -0.00106932 3.65665 4.41365e-06 4.2002 4.41365e-06H9.57129C10.1236 4.41365e-06 10.5713 0.44772 10.5713 1C10.5713 1.55229 10.1236 2 9.57129 2H4.2002C3.62365 2 3.25112 2.00127 2.96778 2.02442C2.69619 2.04662 2.59534 2.08419 2.5459 2.10938C2.35793 2.20522 2.20522 2.35793 2.10938 2.5459C2.08419 2.59534 2.04662 2.69619 2.02442 2.96778C2.00127 3.25112 2 3.62365 2 4.2002V5H8.5C8.9166 5 9.27089 4.9952 9.58497 5.05762C10.775 5.29434 11.7057 6.22497 11.9424 7.41504C12.0048 7.72912 12 8.08341 12 8.5C12 8.9166 12.0048 9.27089 11.9424 9.58497C11.7057 10.775 10.775 11.7057 9.58497 11.9424C9.27089 12.0048 8.9166 12 8.5 12H4.2002C3.65665 12 3.18836 12.0011 2.80469 11.9697C2.40943 11.9374 2.016 11.8656 1.6377 11.6729C1.07348 11.3853 0.614727 10.9265 0.327153 10.3623C0.134401 9.98401 0.0625888 9.59058 0.0302779 9.19532C-0.00106931 8.81165 4.41361e-06 8.34336 4.41361e-06 7.79981ZM2 7.79981C2 8.37636 2.00127 8.74889 2.02442 9.03223C2.04662 9.30382 2.08419 9.40467 2.10938 9.45411C2.20522 9.64208 2.35793 9.79479 2.5459 9.89063C2.59534 9.91582 2.69619 9.95339 2.96778 9.97559C3.25112 9.99874 3.62365 10 4.2002 10H8.5C9.01259 10 9.12307 9.99484 9.19532 9.98047C9.59179 9.9015 9.9015 9.59179 9.98047 9.19532C9.99484 9.12307 10 9.01259 10 8.5C10 7.98742 9.99484 7.87694 9.98047 7.80469C9.9015 7.40822 9.59179 7.09851 9.19532 7.01954C9.12307 7.00516 9.01259 7 8.5 7H2V7.79981Z" fill="white"/>
</svg>
