<svg width="12" height="12" viewBox="0 0 12 12" fill="none" xmlns="http://www.w3.org/2000/svg">
<path d="M10.0002 8.2219C10.0002 7.87547 9.99739 7.80622 9.9885 7.74827C9.96405 7.58944 9.90187 7.43842 9.80686 7.30882C9.77384 7.26378 9.72938 7.21607 9.51389 7.00022H2.48655C2.27107 7.21607 2.2266 7.26378 2.19358 7.30882C2.09858 7.43842 2.03639 7.58944 2.01194 7.74827C2.00305 7.80622 2.00022 7.87547 2.00022 8.2219C2.00022 9.02113 2.01151 9.19119 2.04612 9.301C2.14424 9.61212 2.38832 9.85621 2.69944 9.95432C2.80925 9.98893 2.97932 10.0002 3.77854 10.0002H8.2219C9.02113 10.0002 9.19119 9.98893 9.301 9.95432C9.61212 9.85621 9.85621 9.61212 9.95432 9.301C9.98893 9.19119 10.0002 9.02113 10.0002 8.2219ZM10.0002 3.77854C10.0002 2.97932 9.98893 2.80925 9.95432 2.69944C9.85621 2.38832 9.61212 2.14424 9.301 2.04612C9.19119 2.01151 9.02113 2.00022 8.2219 2.00022H3.77854C2.97932 2.00022 2.80925 2.01151 2.69944 2.04612C2.38832 2.14424 2.14424 2.38832 2.04612 2.69944C2.01151 2.80925 2.00022 2.97932 2.00022 3.77854C2.00022 4.12497 2.00305 4.19423 2.01194 4.25217C2.03639 4.411 2.09858 4.56202 2.19358 4.69163C2.2266 4.73666 2.27107 4.78437 2.48655 5.00022H9.51389C9.72938 4.78437 9.77384 4.73666 9.80686 4.69163C9.90186 4.56202 9.96405 4.411 9.9885 4.25217C9.99739 4.19423 10.0002 4.12497 10.0002 3.77854ZM12.0002 3.77854C12.0002 4.06464 12.0027 4.31249 11.9651 4.55686C11.8917 5.03345 11.7043 5.48537 11.4192 5.87425C11.3874 5.91756 11.3532 5.9588 11.3186 6.00022C11.3532 6.04164 11.3874 6.08288 11.4192 6.1262C11.7043 6.51507 11.8917 6.967 11.9651 7.44358C12.0027 7.68795 12.0002 7.9358 12.0002 8.2219C12.0002 8.87018 12.0121 9.42511 11.8615 9.90257C11.5672 10.8359 10.8359 11.5672 9.90257 11.8615C9.42511 12.0121 8.87018 12.0002 8.2219 12.0002H3.77854C3.13026 12.0002 2.57533 12.0121 2.09788 11.8615C1.16451 11.5672 0.433239 10.8359 0.138893 9.90257C-0.0116754 9.42511 0.000221549 8.87018 0.000221549 8.2219C0.00021903 7.9358 -0.00224118 7.68795 0.0353778 7.44358C0.108757 6.967 0.296158 6.51507 0.581276 6.1262C0.613041 6.08288 0.647237 6.04164 0.681862 6.00022C0.647237 5.9588 0.613041 5.91756 0.581276 5.87425C0.296158 5.48537 0.108757 5.03345 0.0353778 4.55686C-0.00224119 4.31249 0.000219031 4.06464 0.000221549 3.77854C0.000221549 3.13026 -0.0116755 2.57533 0.138893 2.09788C0.433239 1.16451 1.16451 0.433239 2.09788 0.138893C2.57533 -0.0116755 3.13026 0.000221549 3.77854 0.000221549H8.2219C8.87018 0.000221549 9.42511 -0.0116754 9.90257 0.138893C10.8359 0.433239 11.5672 1.16451 11.8615 2.09788C12.0121 2.57533 12.0002 3.13026 12.0002 3.77854Z" fill="white"/>
</svg>
