<svg width="12" height="12" viewBox="0 0 12 12" fill="none" xmlns="http://www.w3.org/2000/svg">
<path d="M5.65703e-06 11V5.00001C5.65679e-06 4.08547 -0.00222735 3.29863 0.0820369 2.67188C0.17019 2.01648 0.369331 1.38849 0.878912 0.878912C1.38849 0.369331 2.01648 0.17019 2.67188 0.0820369C3.29863 -0.00222736 4.08547 5.65705e-06 5.00001 5.65705e-06H11C11.5523 5.65705e-06 12 0.447721 12 1.00001C12 1.55229 11.5523 2.00001 11 2.00001H5.00001C4.02893 2.00001 3.40099 2.00228 2.93848 2.06446C2.50494 2.12278 2.36908 2.21686 2.29297 2.29297C2.21686 2.36908 2.12278 2.50494 2.06446 2.93848C2.00228 3.40099 2.00001 4.02893 2.00001 5.00001H6.00001C6.55229 5.00001 7.00001 5.44772 7.00001 6.00001C7.00001 6.55229 6.55229 7.00001 6.00001 7.00001H2.00001V11C2.00001 11.5523 1.55229 12 1.00001 12C0.447721 12 5.65703e-06 11.5523 5.65703e-06 11Z" fill="white"/>
</svg>
