<svg width="12" height="12" viewBox="0 0 12 12" fill="none" xmlns="http://www.w3.org/2000/svg">
<path d="M4.57333e-05 6.00005C4.57333e-05 5.11867 -0.00516827 4.5318 0.0957489 4.02446C0.490297 2.04105 2.04105 0.490297 4.02446 0.0957489C4.5318 -0.00516827 5.11867 4.57332e-05 6.00005 4.57332e-05H9.57133C10.1236 4.57332e-05 10.5713 0.447761 10.5713 1.00005C10.5713 1.55233 10.1236 2.00005 9.57133 2.00005H6.00005C5.02318 2.00005 4.68049 2.00492 4.41508 2.05766C3.22501 2.29438 2.29438 3.22501 2.05766 4.41508C2.00492 4.68049 2.00005 5.02318 2.00005 6.00005C2.00005 6.97691 2.00492 7.3196 2.05766 7.58501C2.29438 8.77508 3.22501 9.70571 4.41508 9.94243C4.68049 9.99517 5.02318 10 6.00005 10H7.00005C8.6569 10 10 8.6569 10 7.00005H7.42876C6.87647 7.00005 6.42876 6.55233 6.42876 6.00005C6.42876 5.44776 6.87647 5.00005 7.42876 5.00005H10C11.1046 5.00005 12 5.89548 12 7.00005C12 9.76147 9.76147 12 7.00005 12H6.00005C5.11867 12 4.5318 12.0053 4.02446 11.9043C2.04105 11.5098 0.490297 9.95904 0.0957489 7.97563C-0.00516827 7.46829 4.57329e-05 6.88143 4.57333e-05 6.00005Z" fill="white"/>
</svg>
