<svg width="12" height="12" viewBox="0 0 12 12" fill="none" xmlns="http://www.w3.org/2000/svg">
<path d="M10 3.50009C10 2.9875 9.99485 2.87702 9.98047 2.80477C9.9015 2.40831 9.59179 2.09859 9.19532 2.01962C9.12307 2.00525 9.01259 2.00009 8.50001 2.00009H5.00001C4.02893 2.00009 3.40099 2.00236 2.93848 2.06454C2.50494 2.12286 2.36908 2.21694 2.29297 2.29305C2.21686 2.36916 2.12278 2.50501 2.06446 2.93856C2.00228 3.40107 2.00001 4.02901 2.00001 5.00009H8.50001C9.01259 5.00009 9.12307 4.99493 9.19532 4.98055C9.59179 4.90158 9.9015 4.59187 9.98047 4.1954C9.99485 4.12315 10 4.01267 10 3.50009ZM12 3.50009C12 3.91668 12.0048 4.27098 11.9424 4.58505C11.7057 5.77512 10.775 6.70575 9.58497 6.94247C9.2709 7.00489 8.9166 7.00009 8.50001 7.00009H2.00001V11.0001C2.00001 11.5524 1.55229 12.0001 1.00001 12.0001C0.447721 12.0001 5.65702e-06 11.5524 5.65702e-06 11.0001V5.00009C5.65689e-06 4.08555 -0.00222735 3.29871 0.0820369 2.67196C0.17019 2.01656 0.369331 1.38857 0.878912 0.878992C1.38849 0.369411 2.01648 0.17027 2.67188 0.0821169C3.29863 -0.0021474 4.08547 8.5617e-05 5.00001 8.5617e-05H8.50001C8.9166 8.5617e-05 9.2709 -0.0047214 9.58497 0.0577028C10.775 0.294423 11.7057 1.22505 11.9424 2.41512C12.0048 2.7292 12 3.0835 12 3.50009Z" fill="white"/>
</svg>
