<svg width="12" height="12" viewBox="0 0 12 12" fill="none" xmlns="http://www.w3.org/2000/svg">
<path d="M4.57332e-05 6L4.57332e-05 1C4.67457e-05 0.447716 0.447762 0 1.00005 0C1.55233 0 2.00004 0.447716 2.00005 1L2.00005 6C2.00005 6.97687 2.00492 7.31956 2.05766 7.58496C2.29438 8.77503 3.22501 9.70566 4.41508 9.94238C4.68049 9.99513 5.02318 10 6.00005 10C6.97691 10 7.3196 9.99513 7.58501 9.94238C8.77508 9.70566 9.70571 8.77503 9.94243 7.58496C9.99517 7.31956 10 6.97687 10 6L10 1C10 0.447715 10.4478 0 11 0C11.5523 8.59014e-08 12 0.447715 12 1L12 6C12 6.88138 12.0053 7.46824 11.9043 7.97559C11.5098 9.95899 9.95904 11.5097 7.97563 11.9043C7.46829 12.0052 6.88143 12 6.00005 12C5.11867 12 4.5318 12.0052 4.02446 11.9043C2.04105 11.5097 0.490297 9.95899 0.0957489 7.97559C-0.00516827 7.46824 4.57332e-05 6.88138 4.57332e-05 6Z" fill="white"/>
</svg>
