<svg width="12" height="12" viewBox="0 0 12 12" fill="none" xmlns="http://www.w3.org/2000/svg">
<path d="M3.5255 10C3.75936 10 3.80648 9.99917 3.84582 9.99512C4.039 9.97512 4.22236 9.89875 4.37316 9.77637C4.40388 9.75141 4.43824 9.7191 4.60363 9.55371L5.00011 9.15723L5.00011 1C5.00011 0.447715 5.44783 -2.21988e-07 6.00011 -2.62273e-07C6.5524 -2.38132e-07 7.00011 0.447715 7.00011 1L7.00011 9.15723L7.3966 9.55371C7.56199 9.7191 7.59635 9.75141 7.62707 9.77637C7.77787 9.89875 7.96122 9.97512 8.15441 9.99512C8.19375 9.99917 8.24087 10 8.47472 10C9.01342 10 9.1294 9.99438 9.20519 9.97852C9.59377 9.89708 9.89719 9.59365 9.97863 9.20508C9.99449 9.12929 10.0001 9.01331 10.0001 8.47461L10.0001 1C10.0001 0.447715 10.4478 -6.78569e-08 11.0001 -4.37158e-08C11.5524 -1.95746e-08 12.0001 0.447715 12.0001 1L12.0001 8.47461C12.0001 8.91234 12.0055 9.2848 11.9366 9.61426C11.6925 10.7806 10.7807 11.6924 9.61437 11.9365C9.28492 12.0054 8.91245 12 8.47472 12C8.28146 12 8.11428 12.0015 7.94836 11.9844C7.36829 11.9243 6.81798 11.6958 6.36535 11.3281C6.24166 11.2276 6.1291 11.1144 6.00011 10.9854C5.87113 11.1144 5.75856 11.2276 5.63488 11.3281C5.18225 11.6958 4.63193 11.9243 4.05187 11.9844C3.88594 12.0015 3.71876 12 3.5255 12C3.08777 12 2.71531 12.0054 2.38586 11.9365C1.21948 11.6924 0.307706 10.7806 0.0635896 9.61426C-0.00530811 9.2848 0.000113098 8.91234 0.000113117 8.47461L0.000113444 0.999999C0.000113468 0.447715 0.447829 -3.7612e-07 1.00011 -4.8083e-07C1.5524 -4.56689e-07 2.00011 0.447715 2.00011 1L2.00011 8.47461C2.00011 9.01331 2.00574 9.12929 2.0216 9.20508C2.10303 9.59365 2.40646 9.89708 2.79503 9.97852C2.87082 9.99438 2.9868 10 3.5255 10Z" fill="white"/>
</svg>
